<?xml version="1.0" encoding="UTF-8" standalone="no"?>
<svg
   xmlns:dc="http://purl.org/dc/elements/1.1/"
   xmlns:cc="http://creativecommons.org/ns#"
   xmlns:rdf="http://www.w3.org/1999/02/22-rdf-syntax-ns#"
   xmlns:svg="http://www.w3.org/2000/svg"
   xmlns="http://www.w3.org/2000/svg"
   width="1988.5715"
   height="514.24652"
   viewBox="0 0 526.14288 136.06106"
   version="1.1"
   id="svg8">
  <defs
     id="defs2" />
  <metadata
     id="metadata5">
    <rdf:RDF>
      <cc:Work
         rdf:about="">
        <dc:format>image/svg+xml</dc:format>
        <dc:type
           rdf:resource="http://purl.org/dc/dcmitype/StillImage" />
        <dc:title></dc:title>
      </cc:Work>
    </rdf:RDF>
  </metadata>
  <rect
     y="-2.8421709e-14"
     x="0"
     height="136.06105"
     width="526.14288"
     id="rect931"
     style="fill:#f9f9f9;fill-opacity:1;stroke:none;stroke-width:0.19610253;stroke-miterlimit:4;stroke-dasharray:none;stroke-opacity:1" />
  <rect
     y="14.800209"
     x="18.59643"
     height="105.91191"
     width="486.07077"
     id="rect819"
     style="fill:#7b7b7b;fill-opacity:1;stroke:none;stroke-width:0.90616971;stroke-miterlimit:4;stroke-dasharray:none;stroke-opacity:1" />
  <g
     id="text817"
     style="font-style:normal;font-weight:normal;font-size:12.69999981px;line-height:1.25;font-family:sans-serif;text-align:center;letter-spacing:0px;word-spacing:0px;text-anchor:middle;fill:#d9d9d9;fill-opacity:1;stroke:none;stroke-width:0.26458332"
     aria-label="&lt;H2&gt;">
    <path
       id="path1379"
       style="font-size:50.79999924px;text-align:center;text-anchor:middle;fill:#d9d9d9;fill-opacity:1;stroke-width:0.26458332"
       d="m 221.13931,63.092815 -25.59844,9.10332 25.59844,9.053711 v 4.514453 L 189.3397,74.23012 v -4.117579 l 31.79961,-11.534179 z" />
    <path
       id="path1381"
       style="font-size:50.79999924px;text-align:center;text-anchor:middle;fill:#d9d9d9;fill-opacity:1;stroke-width:0.26458332"
       d="m 231.50767,51.062542 h 5.01054 V 66.24301 h 18.20664 V 51.062542 h 5.01055 V 88.09594 h -5.01055 V 70.459807 H 236.51821 V 88.09594 h -5.01054 z" />
    <path
       id="path1383"
       style="font-size:50.79999924px;text-align:center;text-anchor:middle;fill:#d9d9d9;fill-opacity:1;stroke-width:0.26458332"
       d="m 274.46938,83.879143 h 17.48731 v 4.216797 h -23.51484 v -4.216797 q 2.85253,-2.951758 7.76386,-7.912695 4.93614,-4.985742 6.20117,-6.424414 2.40606,-2.703711 3.34864,-4.564063 0.96738,-1.885156 0.96738,-3.695898 0,-2.951758 -2.08359,-4.812109 -2.05879,-1.860352 -5.38262,-1.860352 -2.35645,0 -4.98574,0.818555 -2.6045,0.818554 -5.58106,2.480468 v -5.060156 q 3.02617,-1.215429 5.65547,-1.835547 2.6293,-0.620117 4.81211,-0.620117 5.75469,0 9.17773,2.877344 3.42305,2.877344 3.42305,7.689453 0,2.282031 -0.86816,4.34082 -0.84336,2.033985 -3.10059,4.812109 -0.62012,0.719336 -3.94394,4.167188 -3.32383,3.423047 -9.37618,9.599414 z" />
    <path
       id="path1385"
       style="font-size:50.79999924px;text-align:center;text-anchor:middle;fill:#d9d9d9;fill-opacity:1;stroke-width:0.26458332"
       d="m 302.44907,63.092815 v -4.514453 l 31.79961,11.534179 v 4.117579 l -31.79961,11.534179 v -4.514453 l 25.54883,-9.053711 z" />
  </g>
</svg>
