<?xml version="1.0" encoding="UTF-8" standalone="no"?>
<svg
   xmlns:dc="http://purl.org/dc/elements/1.1/"
   xmlns:cc="http://creativecommons.org/ns#"
   xmlns:rdf="http://www.w3.org/1999/02/22-rdf-syntax-ns#"
   xmlns:svg="http://www.w3.org/2000/svg"
   xmlns="http://www.w3.org/2000/svg"
   width="1988.5715"
   height="514.24652"
   viewBox="0 0 526.14288 136.06106"
   version="1.1"
   id="svg8">
  <defs
     id="defs2" />
  <metadata
     id="metadata5">
    <rdf:RDF>
      <cc:Work
         rdf:about="">
        <dc:format>image/svg+xml</dc:format>
        <dc:type
           rdf:resource="http://purl.org/dc/dcmitype/StillImage" />
        <dc:title></dc:title>
      </cc:Work>
    </rdf:RDF>
  </metadata>
  <rect
     y="-2.8421709e-14"
     x="0"
     height="136.06105"
     width="526.14288"
     id="rect931"
     style="fill:#f9f9f9;fill-opacity:1;stroke:none;stroke-width:0.19610253;stroke-miterlimit:4;stroke-dasharray:none;stroke-opacity:1" />
  <rect
     y="14.800209"
     x="18.59643"
     height="105.91191"
     width="486.07077"
     id="rect819"
     style="fill:#7b7b7b;fill-opacity:1;stroke:none;stroke-width:0.90616971;stroke-miterlimit:4;stroke-dasharray:none;stroke-opacity:1" />
  <g
     id="text817"
     style="font-style:normal;font-weight:normal;font-size:12.69999981px;line-height:1.25;font-family:sans-serif;text-align:center;letter-spacing:0px;word-spacing:0px;text-anchor:middle;fill:#d9d9d9;fill-opacity:1;stroke:none;stroke-width:0.26458332"
     aria-label="&lt;H3&gt;">
    <path
       id="path1388"
       style="font-size:50.79999924px;text-align:center;text-anchor:middle;fill:#d9d9d9;fill-opacity:1;stroke-width:0.26458332"
       d="m 221.13931,63.092815 -25.59844,9.10332 25.59844,9.053711 v 4.514453 L 189.3397,74.23012 v -4.117579 l 31.79961,-11.534179 z" />
    <path
       id="path1390"
       style="font-size:50.79999924px;text-align:center;text-anchor:middle;fill:#d9d9d9;fill-opacity:1;stroke-width:0.26458332"
       d="m 231.50767,51.062542 h 5.01054 V 66.24301 h 18.20664 V 51.062542 h 5.01055 V 88.09594 h -5.01055 V 70.459807 H 236.51821 V 88.09594 h -5.01054 z" />
    <path
       id="path1392"
       style="font-size:50.79999924px;text-align:center;text-anchor:middle;fill:#d9d9d9;fill-opacity:1;stroke-width:0.26458332"
       d="m 285.33384,68.128166 q 3.59668,0.768946 5.60586,3.199805 2.03398,2.430859 2.03398,6.002734 0,5.481836 -3.77031,8.483203 -3.77031,3.001368 -10.71563,3.001368 -2.33164,0 -4.81211,-0.471289 -2.45566,-0.446485 -5.08496,-1.364258 v -4.836914 q 2.0836,1.215429 4.56407,1.835547 2.48046,0.620117 5.18418,0.620117 4.71289,0 7.16855,-1.860352 2.48047,-1.860351 2.48047,-5.407422 0,-3.274218 -2.30684,-5.109765 -2.28203,-1.860352 -6.3748,-1.860352 h -4.31602 V 66.24301 h 4.51446 q 3.69589,0 5.65546,-1.463476 1.95957,-1.488281 1.95957,-4.266406 0,-2.852539 -2.03398,-4.365625 -2.00918,-1.537891 -5.77949,-1.537891 -2.05879,0 -4.41524,0.446484 -2.35644,0.446485 -5.18418,1.389063 v -4.464844 q 2.85254,-0.79375 5.33301,-1.190625 2.50528,-0.396875 4.71289,-0.396875 5.70508,0 9.02891,2.604492 3.32383,2.579688 3.32383,6.994922 0,3.075781 -1.76114,5.208984 -1.76113,2.108399 -5.01054,2.926953 z" />
    <path
       id="path1394"
       style="font-size:50.79999924px;text-align:center;text-anchor:middle;fill:#d9d9d9;fill-opacity:1;stroke-width:0.26458332"
       d="m 302.44907,63.092815 v -4.514453 l 31.79961,11.534179 v 4.117579 l -31.79961,11.534179 v -4.514453 l 25.54883,-9.053711 z" />
  </g>
</svg>
