<?xml version="1.0" encoding="UTF-8" standalone="no"?>
<svg
   xmlns:dc="http://purl.org/dc/elements/1.1/"
   xmlns:cc="http://creativecommons.org/ns#"
   xmlns:rdf="http://www.w3.org/1999/02/22-rdf-syntax-ns#"
   xmlns:svg="http://www.w3.org/2000/svg"
   xmlns="http://www.w3.org/2000/svg"
   width="1988.5715"
   height="514.24652"
   viewBox="0 0 526.14288 136.06106"
   version="1.1"
   id="svg8">
  <defs
     id="defs2" />
  <metadata
     id="metadata5">
    <rdf:RDF>
      <cc:Work
         rdf:about="">
        <dc:format>image/svg+xml</dc:format>
        <dc:type
           rdf:resource="http://purl.org/dc/dcmitype/StillImage" />
        <dc:title></dc:title>
      </cc:Work>
    </rdf:RDF>
  </metadata>
  <rect
     y="-2.8421709e-14"
     x="0"
     height="136.06105"
     width="526.14288"
     id="rect931"
     style="fill:#f9f9f9;fill-opacity:1;stroke:none;stroke-width:0.19610253;stroke-miterlimit:4;stroke-dasharray:none;stroke-opacity:1" />
  <rect
     y="14.800209"
     x="18.59643"
     height="105.91191"
     width="486.07077"
     id="rect819"
     style="fill:#7b7b7b;fill-opacity:1;stroke:none;stroke-width:0.90616971;stroke-miterlimit:4;stroke-dasharray:none;stroke-opacity:1" />
  <g
     id="text817"
     style="font-style:normal;font-weight:normal;font-size:12.69999981px;line-height:1.25;font-family:sans-serif;text-align:center;letter-spacing:0px;word-spacing:0px;text-anchor:middle;fill:#d9d9d9;fill-opacity:1;stroke:none;stroke-width:0.26458332"
     aria-label="&lt;H5&gt;">
    <path
       id="path1406"
       style="font-size:50.79999924px;text-align:center;text-anchor:middle;fill:#d9d9d9;fill-opacity:1;stroke-width:0.26458332"
       d="m 221.13931,63.092815 -25.59844,9.10332 25.59844,9.053711 v 4.514453 L 189.3397,74.23012 v -4.117579 l 31.79961,-11.534179 z" />
    <path
       id="path1408"
       style="font-size:50.79999924px;text-align:center;text-anchor:middle;fill:#d9d9d9;fill-opacity:1;stroke-width:0.26458332"
       d="m 231.50767,51.062542 h 5.01054 V 66.24301 h 18.20664 V 51.062542 h 5.01055 V 88.09594 h -5.01055 V 70.459807 H 236.51821 V 88.09594 h -5.01054 z" />
    <path
       id="path1410"
       style="font-size:50.79999924px;text-align:center;text-anchor:middle;fill:#d9d9d9;fill-opacity:1;stroke-width:0.26458332"
       d="m 270.20298,51.062542 h 19.67011 v 4.216797 h -15.08124 v 9.078515 q 1.0914,-0.37207 2.18281,-0.545703 1.0914,-0.198438 2.18281,-0.198438 6.20117,0 9.82266,3.398243 3.62148,3.398242 3.62148,9.202539 0,5.977929 -3.7207,9.301757 -3.72071,3.299024 -10.49239,3.299024 -2.33164,0 -4.7625,-0.396875 -2.40605,-0.396875 -4.98574,-1.190625 v -5.035352 q 2.23242,1.21543 4.61367,1.810742 2.38125,0.595313 5.03536,0.595313 4.29121,0 6.79648,-2.257227 2.50527,-2.257226 2.50527,-6.126757 0,-3.869532 -2.50527,-6.126758 -2.50527,-2.257227 -6.79648,-2.257227 -2.00918,0 -4.01836,0.446485 -1.98438,0.446484 -4.06797,1.389062 z" />
    <path
       id="path1412"
       style="font-size:50.79999924px;text-align:center;text-anchor:middle;fill:#d9d9d9;fill-opacity:1;stroke-width:0.26458332"
       d="m 302.44907,63.092815 v -4.514453 l 31.79961,11.534179 v 4.117579 l -31.79961,11.534179 v -4.514453 l 25.54883,-9.053711 z" />
  </g>
</svg>
