<?xml version="1.0" encoding="UTF-8" standalone="no"?>
<svg
   xmlns:dc="http://purl.org/dc/elements/1.1/"
   xmlns:cc="http://creativecommons.org/ns#"
   xmlns:rdf="http://www.w3.org/1999/02/22-rdf-syntax-ns#"
   xmlns:svg="http://www.w3.org/2000/svg"
   xmlns="http://www.w3.org/2000/svg"
   xmlns:sodipodi="http://sodipodi.sourceforge.net/DTD/sodipodi-0.dtd"
   xmlns:inkscape="http://www.inkscape.org/namespaces/inkscape"
   id="svg8"
   version="1.1"
   viewBox="0 0 526.14288 136.06106"
   height="514.24652"
   width="1988.5715"
   sodipodi:docname="h6.svg"
   inkscape:version="0.92.4 (5da689c313, 2019-01-14)">
  <sodipodi:namedview
     pagecolor="#ffffff"
     bordercolor="#666666"
     borderopacity="1"
     objecttolerance="10"
     gridtolerance="10"
     guidetolerance="10"
     inkscape:pageopacity="0"
     inkscape:pageshadow="2"
     inkscape:window-width="1920"
     inkscape:window-height="1017"
     id="namedview10"
     showgrid="true"
     inkscape:zoom="1.0809793"
     inkscape:cx="715.84531"
     inkscape:cy="169.84177"
     inkscape:window-x="-8"
     inkscape:window-y="-8"
     inkscape:window-maximized="1"
     inkscape:current-layer="svg8">
    <inkscape:grid
       type="xygrid"
       id="grid817" />
  </sodipodi:namedview>
  <defs
     id="defs2" />
  <metadata
     id="metadata5">
    <rdf:RDF>
      <cc:Work
         rdf:about="">
        <dc:format>image/svg+xml</dc:format>
        <dc:type
           rdf:resource="http://purl.org/dc/dcmitype/StillImage" />
        <dc:title></dc:title>
      </cc:Work>
    </rdf:RDF>
  </metadata>
  <rect
     style="fill:#f9f9f9;fill-opacity:1;stroke:none;stroke-width:0.19610253;stroke-miterlimit:4;stroke-dasharray:none;stroke-opacity:1"
     id="rect931"
     width="526.14288"
     height="136.06105"
     x="0"
     y="-2.8421709e-14" />
  <rect
     style="fill:#7b7b7b;fill-opacity:1;stroke:none;stroke-width:0.90616971;stroke-miterlimit:4;stroke-dasharray:none;stroke-opacity:1"
     id="rect819"
     width="486.07077"
     height="105.91191"
     x="18.59643"
     y="14.800209" />
  <g
     aria-label="&lt;H6&gt;"
     style="font-style:normal;font-weight:normal;font-size:12.69999981px;line-height:1.25;font-family:sans-serif;text-align:center;letter-spacing:0px;word-spacing:0px;text-anchor:middle;fill:#d9d9d9;fill-opacity:1;stroke:none;stroke-width:0.26458332"
     id="text817">
    <path
       d="m 221.13931,63.092815 -25.59844,9.10332 25.59844,9.053711 v 4.514453 L 189.3397,74.23012 v -4.117579 l 31.79961,-11.534179 z"
       style="font-size:50.79999924px;text-align:center;text-anchor:middle;fill:#d9d9d9;fill-opacity:1;stroke-width:0.26458332"
       id="path1415" />
    <path
       d="m 231.50767,51.062542 h 5.01054 V 66.24301 h 18.20664 V 51.062542 h 5.01055 V 88.09594 h -5.01055 V 70.459807 H 236.51821 V 88.09594 h -5.01054 z"
       style="font-size:50.79999924px;text-align:center;text-anchor:middle;fill:#d9d9d9;fill-opacity:1;stroke-width:0.26458332"
       id="path1417" />
    <path
       d="m 281.48911,67.582463 q -3.37344,0 -5.35781,2.306836 -1.95957,2.306836 -1.95957,6.325196 0,3.993554 1.95957,6.325195 1.98437,2.306836 5.35781,2.306836 3.37344,0 5.33301,-2.306836 1.98437,-2.331641 1.98437,-6.325195 0,-4.01836 -1.98437,-6.325196 -1.95957,-2.306836 -5.33301,-2.306836 z m 9.94668,-15.701367 v 4.564063 q -1.88516,-0.892969 -3.81992,-1.364258 -1.90996,-0.471289 -3.79512,-0.471289 -4.96094,0 -7.59023,3.348633 -2.6045,3.348633 -2.97657,10.120312 1.46348,-2.158008 3.6711,-3.299023 2.20762,-1.165821 4.86172,-1.165821 5.58105,0 8.80566,3.398243 3.24941,3.373437 3.24941,9.202539 0,5.705078 -3.37343,9.152929 -3.37344,3.447852 -8.9793,3.447852 -6.42441,0 -9.82266,-4.911328 -3.39824,-4.936133 -3.39824,-14.2875 0,-8.78086 4.16719,-13.989844 4.16719,-5.233789 11.18691,-5.233789 1.88516,0 3.79512,0.372071 1.93477,0.37207 4.01836,1.11621 z"
       style="font-size:50.79999924px;text-align:center;text-anchor:middle;fill:#d9d9d9;fill-opacity:1;stroke-width:0.26458332"
       id="path1419" />
    <path
       d="m 302.44907,63.092815 v -4.514453 l 31.79961,11.534179 v 4.117579 l -31.79961,11.534179 v -4.514453 l 25.54883,-9.053711 z"
       style="font-size:50.79999924px;text-align:center;text-anchor:middle;fill:#d9d9d9;fill-opacity:1;stroke-width:0.26458332"
       id="path1421" />
  </g>
</svg>
