<?xml version="1.0" encoding="UTF-8" standalone="no"?>
<svg
   xmlns:dc="http://purl.org/dc/elements/1.1/"
   xmlns:cc="http://creativecommons.org/ns#"
   xmlns:rdf="http://www.w3.org/1999/02/22-rdf-syntax-ns#"
   xmlns:svg="http://www.w3.org/2000/svg"
   xmlns="http://www.w3.org/2000/svg"
   xmlns:sodipodi="http://sodipodi.sourceforge.net/DTD/sodipodi-0.dtd"
   xmlns:inkscape="http://www.inkscape.org/namespaces/inkscape"
   id="svg8"
   version="1.1"
   viewBox="0 0 526.14288 136.06106"
   height="514.24652"
   width="1988.5715"
   sodipodi:docname="ico.svg"
   inkscape:version="0.92.4 (5da689c313, 2019-01-14)">
  <sodipodi:namedview
     pagecolor="#ffffff"
     bordercolor="#666666"
     borderopacity="1"
     objecttolerance="10"
     gridtolerance="10"
     guidetolerance="10"
     inkscape:pageopacity="0"
     inkscape:pageshadow="2"
     inkscape:window-width="1920"
     inkscape:window-height="1017"
     id="namedview10"
     showgrid="true"
     inkscape:zoom="0.54048965"
     inkscape:cx="885.37241"
     inkscape:cy="122.38025"
     inkscape:window-x="-8"
     inkscape:window-y="-8"
     inkscape:window-maximized="1"
     inkscape:current-layer="svg8">
    <inkscape:grid
       type="xygrid"
       id="grid817" />
  </sodipodi:namedview>
  <defs
     id="defs2" />
  <metadata
     id="metadata5">
    <rdf:RDF>
      <cc:Work
         rdf:about="">
        <dc:format>image/svg+xml</dc:format>
        <dc:type
           rdf:resource="http://purl.org/dc/dcmitype/StillImage" />
        <dc:title></dc:title>
      </cc:Work>
    </rdf:RDF>
  </metadata>
  <rect
     style="fill:#f9f9f9;fill-opacity:1;stroke:none;stroke-width:0.19610253;stroke-miterlimit:4;stroke-dasharray:none;stroke-opacity:1"
     id="rect931"
     width="526.14288"
     height="136.06105"
     x="0"
     y="-2.8421709e-14" />
  <rect
     style="fill:#7b7b7b;fill-opacity:1;stroke:none;stroke-width:0.90616971;stroke-miterlimit:4;stroke-dasharray:none;stroke-opacity:1"
     id="rect819"
     width="486.07077"
     height="105.91191"
     x="18.59643"
     y="14.800209" />
  <g
     id="g861"
     transform="translate(2.1166667,-1.0583333)">
    <path
       style="fill:#d9d9d9;fill-opacity:1;stroke-width:0.14882812"
       id="path2-6"
       d="M 75.789897,80.233975 A 17.859375,17.859375 0 1 0 93.649271,98.093352 17.859375,17.859375 0 0 0 75.789897,80.233975 Z m 0,30.956245 A 13.096875,13.096875 0 1 1 88.886769,98.093352 13.111758,13.111758 0 0 1 75.789897,111.19022 Z M 135.32114,80.233975 a 17.859375,17.859375 0 1 0 17.85938,17.859377 17.859375,17.859375 0 0 0 -17.85938,-17.859377 z m 0,30.956245 A 13.096875,13.096875 0 1 1 148.41802,98.093352 13.111758,13.111758 0 0 1 135.32114,111.19022 Z M 113.63837,76.33319 a 7.1720276,7.1720276 0 0 0 4.44848,1.552277 h 8.89992 a 7.1437501,7.1437501 0 0 0 0,-14.2875 h -6.39217 l -3.17301,-2.537519 a 10.444758,10.444758 0 0 0 1.23081,0.123527 10.726043,10.726043 0 1 0 -9.8822,-6.581179 6.9458086,6.9458086 0 0 0 -7.24644,1.190624 L 86.752571,67.550842 c -1.838025,1.564184 -2.745878,3.692426 -2.614905,5.944195 a 7.090172,7.090172 0 0 0 3.161109,5.527477 l 11.112992,7.416106 v 12.845353 a 7.1437515,7.1437515 0 0 0 14.287503,0 V 82.615226 a 7.1303559,7.1303559 0 0 0 -3.17451,-5.939732 l -1.98388,-1.339453 2.45567,-1.893093 z m 5.01403,-31.817965 a 5.9531249,5.9531249 0 1 1 -5.95313,5.953125 5.9531249,5.9531249 0 0 1 5.95313,-5.953125 z m -11.77529,36.119098 a 2.38125,2.38125 0 0 1 1.05966,1.980903 v 16.668747 a 2.381251,2.381251 0 0 1 -4.7625,0 V 83.889194 L 89.946423,75.071127 A 2.38125,2.38125 0 0 1 89.718718,71.283451 L 104.6313,59.409944 a 2.38125,2.38125 0 0 1 3.03758,-0.05358 l 11.25438,9.004101 h 8.06351 a 2.3812501,2.3812501 0 0 1 0,4.7625 h -8.89992 a 2.38125,2.38125 0 0 1 -1.48828,-0.520898 L 110.03674,67.393082 99.405941,75.595 Z"
       inkscape:connector-curvature="0" />
    <path
       style="fill:#d9d9d9;fill-opacity:1;stroke-width:0.1984375"
       id="path2-3"
       d="M 289.97937,65.908774 285.03033,50.71243 C 282.9011,44.175898 276.80907,39.752727 269.9352,39.752727 h -32.61123 c -6.87387,0 -12.9659,4.423171 -15.09513,10.957719 l -4.94904,15.196343 c -6.50874,1.982391 -11.27522,7.961313 -11.27522,15.118954 v 25.401987 c 0,5.25264 4.27236,9.525 9.525,9.525 h 3.17501 c 5.25264,0 9.525,-4.27236 9.525,-9.525 v -3.175 h 50.79999 v 3.175 c 0,5.25264 4.27236,9.525 9.525,9.525 h 3.175 c 5.25264,0 9.525,-4.27236 9.525,-9.525 V 81.025743 c 0,-7.157641 -4.76647,-13.136563 -11.27521,-15.116969 z M 228.26729,52.678945 c 1.28191,-3.93303 4.92124,-6.576218 9.05668,-6.576218 h 32.61123 c 4.13543,0 7.77477,2.643188 9.05668,6.574235 l 4.06202,12.471796 h -58.84863 z m -6.38771,53.748785 c 0,1.7522 -1.42676,3.175 -3.17499,3.175 h -3.17501 c -1.74823,0 -3.175,-1.4228 -3.175,-3.175 v -3.175 h 9.525 z m 73.025,0 c 0,1.7522 -1.42676,3.175 -3.175,3.175 h -3.175 c -1.74823,0 -3.175,-1.4228 -3.175,-3.175 v -3.175 h 9.525 z m 0,-15.876987 v 6.35 h -82.55 v -15.875 c 0,-5.252641 4.27236,-9.525 9.525,-9.525 h 63.5 c 5.25264,0 9.525,4.272359 9.525,9.525 z M 226.80084,76.265227 c -5.15145,0 -8.89001,3.33375 -8.89001,7.927578 0,4.593828 3.73856,7.927578 8.89001,7.927578 l 2.01215,0.01985 c 7.78073,0 8.9416,-3.988593 8.9416,-6.365874 0,-4.897438 -6.17141,-9.509126 -10.95375,-9.509126 z m 2.01215,11.1125 c -0.69652,0 -1.39303,-0.01984 -2.01215,-0.01984 -2.4765,0 -4.12751,-1.266032 -4.12751,-3.165078 0,-1.899047 1.65101,-3.165079 4.12751,-3.165079 2.4765,0 6.19125,2.849563 6.19125,4.74861 0,1.422797 -2.08956,1.60139 -4.1791,1.60139 z m 51.64534,-11.1125 c -4.78234,0 -10.95375,4.611687 -10.95375,9.51111 0,2.377281 1.16086,6.365874 8.9416,6.365874 l 2.01215,-0.01985 c 5.15144,0 8.89,-3.33375 8.89,-7.927578 0,-4.595813 -3.73856,-7.929563 -8.89,-7.929563 z m 0,11.092656 c -0.61912,0 -1.31564,0.01985 -2.01215,0.01985 -2.08955,0 -4.1791,-0.178593 -4.1791,-1.60139 0,-1.899047 3.71475,-4.74861 6.19125,-4.74861 2.4765,0 4.1275,1.266032 4.1275,3.165079 0,1.899046 -1.651,3.165078 -4.1275,3.165078 z"
       inkscape:connector-curvature="0" />
    <path
       style="fill:#d9d9d9;fill-opacity:1;stroke-width:0.18603514"
       id="path2-36"
       d="m 427.30008,92.140226 c 3.28724,0 5.95313,-2.66589 5.95313,-5.95313 0,-3.28724 -2.66589,-5.95312 -5.95313,-5.95312 -3.28724,0 -5.95313,2.66588 -5.95313,5.95312 0,3.28724 2.66589,5.95313 5.95313,5.95313 z m -47.62501,0 c 3.28725,0 5.95313,-2.66589 5.95313,-5.95313 0,-3.28724 -2.66588,-5.95312 -5.95313,-5.95312 -3.28723,0 -5.95312,2.66588 -5.95312,5.95312 0,3.28724 2.66589,5.95313 5.95312,5.95313 z m 66.97267,-47.625 h -1.48829 v -8.92969 c 0,-8.33438 -18.45469,-14.88281 -41.67187,-14.88281 -23.21719,0 -41.67188,6.54843 -41.67188,14.88281 v 8.92969 h -1.48828 c -2.46496,0 -4.46484,1.99802 -4.46484,4.46485 v 14.8828 c 0,2.46497 1.99988,4.46485 4.46484,4.46485 h 1.48828 v 29.76563 c 0,3.287234 2.66588,5.953124 5.95313,5.953124 v 5.95312 c 0,3.28725 2.66588,5.95313 5.95312,5.95313 h 8.92969 c 3.28724,0 5.95312,-2.66588 5.95312,-5.95313 v -5.95312 h 29.76563 v 5.95312 c 0,3.28725 2.66589,5.95313 5.95312,5.95313 h 8.9297 c 3.28723,0 5.95312,-2.66588 5.95312,-5.95313 v -5.95312 c 3.28724,0 5.95312,-2.66589 5.95312,-5.953124 v -29.76563 h 1.48829 c 2.46496,0 4.46484,-1.99988 4.46484,-4.46485 v -14.8828 c 0,-2.46683 -1.99988,-4.46485 -4.46484,-4.46485 z m -78.8845,0 h 32.74778 v 23.8125 h -32.74406 z m 14.8884,65.484374 h -8.92969 v -5.95312 h 8.92969 z m 50.60157,0 h -8.9297 v -5.95312 h 8.9297 z m 5.95312,-11.906244 h -71.4375 l -0.002,-23.81251 h 71.44122 z m 0.002,-29.76563 h -32.7443 v -23.8125 h 32.74788 z m 0.004,-29.76563 h -23.81808 v -1.48828 c 0,-2.46682 -1.99988,-4.46484 -4.46485,-4.46484 h -14.88319 c -2.46496,0 -4.46484,1.99802 -4.46484,4.46484 v 1.48828 h -23.81808 v -2.91889 c 0.62136,-2.47613 12.54621,-8.98735 35.72433,-8.98735 23.17812,0 35.10297,6.51122 35.72433,8.98735 z"
       inkscape:connector-curvature="0" />
  </g>
</svg>
