<?xml version="1.0" encoding="UTF-8" standalone="no"?>
<svg
   xmlns:dc="http://purl.org/dc/elements/1.1/"
   xmlns:cc="http://creativecommons.org/ns#"
   xmlns:rdf="http://www.w3.org/1999/02/22-rdf-syntax-ns#"
   xmlns:svg="http://www.w3.org/2000/svg"
   xmlns="http://www.w3.org/2000/svg"
   xmlns:sodipodi="http://sodipodi.sourceforge.net/DTD/sodipodi-0.dtd"
   xmlns:inkscape="http://www.inkscape.org/namespaces/inkscape"
   id="svg8"
   version="1.1"
   viewBox="0 0 526.14288 136.06106"
   height="514.24652"
   width="1988.5715"
   sodipodi:docname="span.svg"
   inkscape:version="0.92.4 (5da689c313, 2019-01-14)">
  <sodipodi:namedview
     pagecolor="#ffffff"
     bordercolor="#666666"
     borderopacity="1"
     objecttolerance="10"
     gridtolerance="10"
     guidetolerance="10"
     inkscape:pageopacity="0"
     inkscape:pageshadow="2"
     inkscape:window-width="1920"
     inkscape:window-height="1017"
     id="namedview10"
     showgrid="true"
     inkscape:zoom="1.0809793"
     inkscape:cx="893.92458"
     inkscape:cy="169.84177"
     inkscape:window-x="-8"
     inkscape:window-y="-8"
     inkscape:window-maximized="1"
     inkscape:current-layer="svg8">
    <inkscape:grid
       type="xygrid"
       id="grid817" />
  </sodipodi:namedview>
  <defs
     id="defs2" />
  <metadata
     id="metadata5">
    <rdf:RDF>
      <cc:Work
         rdf:about="">
        <dc:format>image/svg+xml</dc:format>
        <dc:type
           rdf:resource="http://purl.org/dc/dcmitype/StillImage" />
        <dc:title></dc:title>
      </cc:Work>
    </rdf:RDF>
  </metadata>
  <rect
     style="fill:#f9f9f9;fill-opacity:1;stroke:none;stroke-width:0.19610253;stroke-miterlimit:4;stroke-dasharray:none;stroke-opacity:1"
     id="rect931"
     width="526.14288"
     height="136.06105"
     x="0"
     y="-2.8421709e-14" />
  <rect
     style="fill:#7b7b7b;fill-opacity:1;stroke:none;stroke-width:0.90616971;stroke-miterlimit:4;stroke-dasharray:none;stroke-opacity:1"
     id="rect819"
     width="486.07077"
     height="105.91191"
     x="18.59643"
     y="14.800209" />
  <g
     aria-label="&lt;SPAN&gt;"
     style="font-style:normal;font-weight:normal;font-size:12.69999981px;line-height:1.25;font-family:sans-serif;text-align:center;letter-spacing:0px;word-spacing:0px;text-anchor:middle;fill:#d9d9d9;fill-opacity:1;stroke:none;stroke-width:0.26458332"
     id="text817">
    <path
       d="m 190.23267,63.092815 -25.59844,9.10332 25.59844,9.053711 v 4.514453 L 158.43306,74.23012 v -4.117579 l 31.79961,-11.534179 z"
       style="font-size:50.79999924px;text-align:center;text-anchor:middle;fill:#d9d9d9;fill-opacity:1;stroke-width:0.26458332"
       id="path834" />
    <path
       d="m 222.80122,52.277971 v 4.886524 q -2.85254,-1.364258 -5.38262,-2.033985 -2.53007,-0.669726 -4.88652,-0.669726 -4.09277,0 -6.3252,1.5875 -2.20761,1.5875 -2.20761,4.514453 0,2.455664 1.46347,3.720703 1.48829,1.240234 5.60586,2.00918 l 3.02618,0.620117 q 5.60585,1.066601 8.25996,3.770312 2.6789,2.678906 2.6789,7.19336 0,5.382617 -3.62148,8.160742 -3.59668,2.778125 -10.5668,2.778125 -2.6293,0 -5.60586,-0.595313 -2.95176,-0.595312 -6.12676,-1.761133 v -5.159375 q 3.05098,1.711524 5.97793,2.579688 2.92696,0.868164 5.75469,0.868164 4.29121,0 6.62285,-1.686719 2.33164,-1.686719 2.33164,-4.812109 0,-2.728516 -1.68672,-4.266406 -1.66191,-1.537891 -5.48183,-2.306836 l -3.05098,-0.595313 q -5.60586,-1.116211 -8.11113,-3.497461 -2.50527,-2.38125 -2.50527,-6.622851 0,-4.911328 3.44785,-7.739062 3.47265,-2.827735 9.5498,-2.827735 2.60449,0 5.30821,0.471289 2.70371,0.471289 5.53144,1.413867 z"
       style="font-size:50.79999924px;text-align:center;text-anchor:middle;fill:#d9d9d9;fill-opacity:1;stroke-width:0.26458332"
       id="path836" />
    <path
       d="m 237.85767,55.18012 v 13.915429 h 6.30039 q 3.49746,0 5.40742,-1.810742 1.90996,-1.810742 1.90996,-5.159375 0,-3.323828 -1.90996,-5.13457 -1.90996,-1.810742 -5.40742,-1.810742 z m -5.01055,-4.117578 h 11.31094 q 6.22597,0 9.40097,2.827734 3.19981,2.80293 3.19981,8.235156 0,5.481836 -3.19981,8.284766 -3.175,2.802929 -9.40097,2.802929 h -6.30039 V 88.09594 h -5.01055 z"
       style="font-size:50.79999924px;text-align:center;text-anchor:middle;fill:#d9d9d9;fill-opacity:1;stroke-width:0.26458332"
       id="path838" />
    <path
       d="m 272.60903,55.998674 -6.79648,18.429883 h 13.61777 z m -2.82773,-4.936132 h 5.68027 l 14.11387,37.033398 h -5.20898 l -3.37344,-9.500196 h -16.69356 l -3.37343,9.500196 h -5.2834 z"
       style="font-size:50.79999924px;text-align:center;text-anchor:middle;fill:#d9d9d9;fill-opacity:1;stroke-width:0.26458332"
       id="path840" />
    <path
       d="m 294.95806,51.062542 h 6.74687 l 16.42071,30.981054 V 51.062542 h 4.86171 V 88.09594 h -6.74687 L 299.81978,57.114885 V 88.09594 h -4.86172 z"
       style="font-size:50.79999924px;text-align:center;text-anchor:middle;fill:#d9d9d9;fill-opacity:1;stroke-width:0.26458332"
       id="path842" />
    <path
       d="m 333.35571,63.092815 v -4.514453 l 31.79961,11.534179 v 4.117579 l -31.79961,11.534179 v -4.514453 l 25.54883,-9.053711 z"
       style="font-size:50.79999924px;text-align:center;text-anchor:middle;fill:#d9d9d9;fill-opacity:1;stroke-width:0.26458332"
       id="path844" />
  </g>
</svg>
