<?xml version="1.0" encoding="UTF-8" standalone="no"?>
<!-- Generator: Adobe Illustrator 19.2.0, SVG Export Plug-In . SVG Version: 6.00 Build 0)  -->

<svg
   xmlns:dc="http://purl.org/dc/elements/1.1/"
   xmlns:cc="http://creativecommons.org/ns#"
   xmlns:rdf="http://www.w3.org/1999/02/22-rdf-syntax-ns#"
   xmlns:svg="http://www.w3.org/2000/svg"
   xmlns="http://www.w3.org/2000/svg"
   xmlns:sodipodi="http://sodipodi.sourceforge.net/DTD/sodipodi-0.dtd"
   xmlns:inkscape="http://www.inkscape.org/namespaces/inkscape"
   version="1.1"
   id="Слой_1"
   x="0px"
   y="0px"
   viewBox="0 0 166.5 70.339874"
   xml:space="preserve"
   sodipodi:docname="logo-gold1.svg"
   width="166.5"
   height="70.339874"
   inkscape:version="0.92.4 (5da689c313, 2019-01-14)"><metadata
   id="metadata43"><rdf:RDF><cc:Work
       rdf:about=""><dc:format>image/svg+xml</dc:format><dc:type
         rdf:resource="http://purl.org/dc/dcmitype/StillImage" /><dc:title /></cc:Work></rdf:RDF></metadata><defs
   id="defs41">
	
	
	
	
	
	
	
	
	
	
	
	
	
	
	
	
</defs><sodipodi:namedview
   pagecolor="#ffffff"
   bordercolor="#666666"
   borderopacity="1"
   objecttolerance="10"
   gridtolerance="10"
   guidetolerance="10"
   inkscape:pageopacity="0"
   inkscape:pageshadow="2"
   inkscape:window-width="1920"
   inkscape:window-height="1017"
   id="namedview39"
   showgrid="false"
   fit-margin-top="0"
   fit-margin-left="0"
   fit-margin-right="0"
   fit-margin-bottom="0"
   inkscape:zoom="1.3103448"
   inkscape:cx="-157.52106"
   inkscape:cy="25.739873"
   inkscape:window-x="-8"
   inkscape:window-y="-8"
   inkscape:window-maximized="1"
   inkscape:current-layer="Слой_1" />
<style
   type="text/css"
   id="style2">
	.st0{fill:#B4A06C;}
</style>
<path
   style="fill:#b4a06c"
   inkscape:connector-curvature="0"
   id="path4"
   d="M 75.5,37.5 94,0 h 72.5 z M 95.6,2.6 80.7,32.7 153.7,2.6 Z"
   class="st0" /><path
   style="fill:#b4a06c"
   inkscape:connector-curvature="0"
   id="path6"
   d="M 72.2,37.5 H 0 L 90.7,0 Z M 12.7,35 H 70.6 L 85.4,4.9 Z"
   class="st0" />
<text
   xml:space="preserve"
   style="font-style:normal;font-weight:normal;font-size:12px;line-height:1.25;font-family:sans-serif;text-align:center;letter-spacing:0px;word-spacing:0px;text-anchor:middle;fill:#000000;fill-opacity:1;stroke:none"
   x="-27.021055"
   y="83.152634"
   id="text868"><tspan
     sodipodi:role="line"
     id="tspan866"
     x="-27.021055"
     y="93.769821" /></text>

<g
   aria-label="COMPANY"
   style="font-style:normal;font-weight:normal;font-size:12px;line-height:1.25;font-family:sans-serif;text-align:center;letter-spacing:0px;word-spacing:0px;text-anchor:middle;fill:#b4a06c;fill-opacity:1;stroke:none"
   id="text872"><path
     d="m 17.808837,60.829455 q 0,-2.893229 1.317708,-5.184896 1.317708,-2.291667 3.580729,-3.552083 2.277344,-1.260417 4.869792,-1.260417 0.78776,0 1.317708,0.10026 0.544271,0.08594 1.289063,0.315104 l -0.286459,1.203125 q -1.647135,-0.44401 -2.649739,-0.44401 -3.638021,0 -5.929688,2.334635 -2.277344,2.320313 -2.277344,6.115886 0,4.311198 2.320313,6.488281 2.334635,2.162761 6.559896,2.162761 1.403646,0 3.4375,-0.615886 l -0.08594,1.059896 q -1.57552,0.58724 -3.695312,0.58724 -4.511719,0 -7.147136,-2.463542 -2.621093,-2.463542 -2.621093,-6.846354 z"
     style="font-style:normal;font-variant:normal;font-weight:normal;font-stretch:normal;font-size:29.33333397px;font-family:Candara;-inkscape-font-specification:Candara;fill:#b4a06c;fill-opacity:1"
     id="path818" /><path
     d="m 42.114828,70.339872 q -3.222657,0 -5.74349,-2.492188 -2.520834,-2.492187 -2.520834,-7.161458 0,-4.46875 2.578126,-7.190105 2.578125,-2.721354 6.04427,-2.721354 3.380209,0 5.829428,2.563802 2.463541,2.54948 2.463541,6.846355 0,4.697916 -2.578125,7.433594 -2.563802,2.721354 -6.072916,2.721354 z m -0.05729,-18.591146 q -1.847656,0 -3.523438,1.217447 -1.675781,1.203125 -2.563802,3.23698 -0.888021,2.019531 -0.888021,4.483073 0,4.196614 2.220052,6.445312 2.234375,2.234375 5.256511,2.234375 2.692708,0 4.826823,-2.463541 2.148438,-2.463542 2.148438,-6.445313 0,-4.253906 -2.177084,-6.473958 -2.177083,-2.234375 -5.299479,-2.234375 z"
     style="font-style:normal;font-variant:normal;font-weight:normal;font-stretch:normal;font-size:29.33333397px;font-family:Candara;-inkscape-font-specification:Candara;fill:#b4a06c;fill-opacity:1"
     id="path820" /><path
     d="m 72.751547,69.752632 q -0.100261,-4.683594 -0.472657,-9.882813 -0.372396,-5.213541 -0.44401,-5.786458 -0.07161,-0.572917 -0.100261,-1.174479 h -0.04297 l -3.036459,7.21875 q -2.649739,6.330729 -3.122396,7.777344 -0.458333,1.446614 -0.458333,1.847656 h -1.03125 q 0,-0.816406 -1.532552,-4.984375 -1.532552,-4.167969 -2.964844,-8.178386 -1.432292,-4.010416 -1.632812,-4.354166 h -0.08594 q -0.07162,3.695312 -0.773437,9.911458 -0.701823,6.216146 -0.701823,7.605469 H 55.034098 Q 55.263265,68.592476 56.079671,61.717476 56.9104,54.828153 56.9104,51.089871 h 1.976563 q 0,0.229167 0.744792,2.40625 0.759114,2.177084 2.076823,5.858073 l 1.045572,2.921875 q 1.131511,3.122396 1.489584,4.239584 0.358073,1.117187 0.358073,1.503906 h 0.08594 q 0,-1.059896 3.151042,-8.221354 3.151042,-7.175782 3.151042,-8.708334 h 1.947916 q 0,1.847657 0.429688,7.90625 0.429687,6.044271 0.615885,8.221355 l 0.214844,2.535156 z"
     style="font-style:normal;font-variant:normal;font-weight:normal;font-stretch:normal;font-size:29.33333397px;font-family:Candara;-inkscape-font-specification:Candara;fill:#b4a06c;fill-opacity:1"
     id="path822" /><path
     d="m 84.596598,51.018257 q 0.444011,0 0.973959,-0.01432 2.964843,0 4.755208,1.102864 1.804688,1.088542 1.804688,3.423178 0,2.979166 -2.291667,4.626302 -2.291667,1.647135 -5.858073,1.647135 -1.27474,0 -1.847656,-0.02865 h -0.358073 q 0,2.506511 0.02865,4.382813 0.02864,1.861979 0.157552,3.595052 h -1.561198 q 0.300781,-5.528646 0.300781,-9.825521 0,-4.526042 -0.24349,-8.83724 h 1.733073 q 0.759115,0 1.647136,-0.04297 z m 6.302084,4.798177 q 0,-2.005208 -1.332031,-2.878906 -1.332032,-0.873698 -4.239584,-0.873698 -2.348958,0 -3.609375,0.08594 0.05729,1.289063 0.05729,8.59375 0.415364,0.02865 1.890625,0.02865 3.466146,0 5.342448,-1.303385 1.890625,-1.303386 1.890625,-3.652344 z"
     style="font-style:normal;font-variant:normal;font-weight:normal;font-stretch:normal;font-size:29.33333397px;font-family:Candara;-inkscape-font-specification:Candara;fill:#b4a06c;fill-opacity:1"
     id="path824" /><path
     d="m 96.98592,62.949247 q -1.317708,3.065104 -1.919271,4.697916 -0.601562,1.632813 -0.601562,2.105469 h -1.532553 q 0,-0.458333 3.981771,-9.095052 3.996095,-8.636719 3.996095,-9.567709 h 1.61849 q 0,0.845052 3.92448,9.381511 3.9388,8.522136 3.9388,9.28125 h -1.47526 q 0,-0.930989 -2.57813,-6.803385 z m 4.72656,-10.684896 h -0.1289 q 0,0.415364 -4.25391,9.739583 h 8.5651 q -2.11979,-4.955729 -3.15104,-7.21875 -1.03125,-2.277344 -1.03125,-2.520833 z"
     style="font-style:normal;font-variant:normal;font-weight:normal;font-stretch:normal;font-size:29.33333397px;font-family:Candara;-inkscape-font-specification:Candara;fill:#b4a06c;fill-opacity:1"
     id="path826" /><path
     d="m 116.4078,53.009142 q 5.78646,8.264323 7.63411,11.200521 1.84766,2.936198 1.9336,3.194011 h 0.0573 q -0.14323,-3.194011 -0.14323,-6.302084 v -3.88151 q 0,-3.895834 -0.0859,-6.130209 h 1.26042 q -0.17187,3.279948 -0.17187,9.395834 0,2.764323 0.0286,4.898437 0.0286,2.119792 0.14323,4.36849 h -0.81641 q -0.0286,0 -1.94791,-2.99349 -1.91927,-2.993489 -3.42318,-5.184895 l -3.27995,-4.783855 -1.07422,-1.575521 q -0.71614,-1.03125 -1.08854,-1.589843 -0.37239,-0.558594 -0.51562,-0.83073 h -0.0573 q 0.11459,3.394532 0.11459,6.187501 0,1.303385 -0.0286,3.709635 l -0.0143,3.236979 q 0,2.334636 0.0716,3.824219 h -1.26041 q 0.24349,-5.528646 0.24349,-9.825521 0,-4.339844 -0.24349,-8.83724 h 1.34635 q 0,0.04297 0.52995,0.787761 z"
     style="font-style:normal;font-variant:normal;font-weight:normal;font-stretch:normal;font-size:29.33333397px;font-family:Candara;-inkscape-font-specification:Candara;fill:#b4a06c;fill-opacity:1"
     id="path828" /><path
     d="m 138.79451,63.880236 q 0,2.75 0.11459,5.872396 h -1.48959 l 0.0143,-0.34375 q 0.15755,-4.339844 0.15755,-5.557292 0,-2.348958 -1.71875,-5.084635 -1.71875,-2.735677 -3.42318,-5.070313 -1.6901,-2.348958 -1.6901,-2.606771 h 1.57552 q 0,0.372396 2.77864,4.397136 2.77865,4.02474 3.17969,6.459635 h 0.11458 q 0.0286,-1.002604 0.84506,-2.592448 0.83073,-1.604166 2.01953,-3.351562 1.20312,-1.761719 2.22005,-3.251302 1.01693,-1.503907 1.01693,-1.661459 h 1.41797 q 0,0.429688 -2.16276,3.33724 -2.16276,2.893229 -3.56641,5.199219 -1.40365,2.305989 -1.40365,4.253906 z"
     style="font-style:normal;font-variant:normal;font-weight:normal;font-stretch:normal;font-size:29.33333397px;font-family:Candara;-inkscape-font-specification:Candara;fill:#b4a06c;fill-opacity:1"
     id="path830" /></g>
</svg>