<?xml version="1.0" encoding="UTF-8" standalone="no"?>
<svg
   xmlns:dc="http://purl.org/dc/elements/1.1/"
   xmlns:cc="http://creativecommons.org/ns#"
   xmlns:rdf="http://www.w3.org/1999/02/22-rdf-syntax-ns#"
   xmlns:svg="http://www.w3.org/2000/svg"
   xmlns="http://www.w3.org/2000/svg"
   height="595.32513"
   width="599.59479"
   id="svg847"
   version="1.1"
   viewBox="0 0 599.59479 595.32513">
  <metadata
     id="metadata853">
    <rdf:RDF>
      <cc:Work
         rdf:about="">
        <dc:format>image/svg+xml</dc:format>
        <dc:type
           rdf:resource="http://purl.org/dc/dcmitype/StillImage" />
        <dc:title></dc:title>
      </cc:Work>
    </rdf:RDF>
  </metadata>
  <defs
     id="defs851" />
  <path
     style="fill:#2c2c28;fill-opacity:1"
     id="path845"
     d="m 569.17533,231.26994 -11.51615,11.10758 -27.76893,-28.79039 c -9.20193,-9.54042 -24.39518,-9.81481 -33.9356,-0.61288 l -28.79038,27.76894 -122.1833,-126.67771 -23.03231,22.21514 122.1833,126.67771 -46.06463,44.43029 -122.18329,-126.67771 -23.03231,22.21515 122.18329,126.67771 -46.06462,44.43029 -122.1833,-126.67771 -23.03231,22.21514 122.1833,126.67771 -46.06462,44.43029 -122.1833,-126.67771 -23.03231,22.21515 122.1833,126.67771 -28.79039,27.76893 c -9.54041,9.20193 -9.8148,24.39517 -0.61287,33.93559 l 27.76893,28.79039 -11.51616,11.10757 c -6.36051,6.13485 -6.54343,16.26321 -0.40858,22.62373 l 5.55379,5.75808 a 8,8 0 0 0 11.31186,0.20429 L 597.14855,248.74847 a 8,8 0 0 0 0.2043,-11.31187 l -5.55379,-5.75807 c -6.13485,-6.36052 -16.26321,-6.54344 -22.62373,-0.40859 z M 236.024,508.14209 512.41172,241.56035 534.62687,264.59266 258.23914,531.1744 Z M 358.52792,0.96577444 120.27122,89.69865 A 48.004,48.004 0 0 0 98.420758,110.77388 L 1.1427583,345.67124 a 11.999,11.999 0 0 0 2.2205066,13.44125 l 6.0980573,6.32237 c 4.6006178,4.76985 12.1979478,4.90705 16.9677958,0.30644 l 14.395194,-13.88447 8.330679,8.63712 c 4.600618,4.76984 12.197949,4.90705 16.967796,0.30643 L 371.3009,66.449713 c 4.76985,-4.600617 4.90705,-12.197948 0.30644,-16.967795 l -8.33068,-8.637117 14.39519,-13.884466 c 4.76985,-4.600617 4.90706,-12.197948 0.30644,-16.9677952 L 371.88023,3.6701706 C 368.42161,0.08432774 363.10859,-0.99183476 358.52792,0.96577444 Z M 334.69056,57.301869 58.302836,323.88361 48.857234,314.09056 127.29428,124.6887 a 16.004,16.004 0 0 1 5.84013,-5.63292 L 325.24496,47.508818 Z" />
</svg>
