<?xml version="1.0" encoding="UTF-8" standalone="no"?>
<svg
   xmlns:dc="http://purl.org/dc/elements/1.1/"
   xmlns:cc="http://creativecommons.org/ns#"
   xmlns:rdf="http://www.w3.org/1999/02/22-rdf-syntax-ns#"
   xmlns:svg="http://www.w3.org/2000/svg"
   xmlns="http://www.w3.org/2000/svg"
   height="644.74353"
   width="568.29785"
   id="svg1973"
   version="1.1"
   viewBox="0 0 568.29785 644.74353">
  <metadata
     id="metadata1979">
    <rdf:RDF>
      <cc:Work
         rdf:about="">
        <dc:format>image/svg+xml</dc:format>
        <dc:type
           rdf:resource="http://purl.org/dc/dcmitype/StillImage" />
        <dc:title></dc:title>
      </cc:Work>
    </rdf:RDF>
  </metadata>
  <defs
     id="defs1977" />
  <path
     style="fill:#2c2c28;fill-opacity:1"
     id="path1971"
     d="M 387.45894,122.85268 C 411.12517,85.522409 400.05792,36.117998 362.72765,12.451762 325.39737,-11.214473 275.99296,-0.14722022 252.32673,37.183054 c -23.66624,37.330273 -12.59899,86.734686 24.73129,110.400916 37.33027,23.66624 86.73468,12.59899 110.40092,-24.73129 z M 279.35317,54.316979 c 14.18903,-22.381272 43.85928,-29.027807 66.24055,-14.838774 22.38127,14.189032 29.02781,43.859279 14.83878,66.240555 -14.18904,22.38127 -43.85928,29.0278 -66.24056,14.83877 C 271.81067,106.3685 265.16414,76.698252 279.35317,54.316979 Z M 294.5479,329.1717 C 327.69134,276.89243 312.20337,207.75385 259.92409,174.61041 207.64482,141.46698 138.50624,156.95495 105.3628,209.23422 72.219363,261.51349 87.707337,330.65207 139.98661,363.79551 192.26589,396.93895 261.40446,381.45097 294.5479,329.1717 Z M 132.38925,226.36814 c 23.61269,-37.24581 73.1551,-48.34398 110.40092,-24.73129 37.24581,23.6127 48.34398,73.15511 24.73129,110.40092 -23.61269,37.24582 -73.15511,48.34399 -110.40092,24.7313 -37.24582,-23.6127 -48.34399,-73.15511 -24.73129,-110.40093 z m 292.80483,-103.27306 -21.4174,33.78305 c -8.13862,12.83756 -11.63429,27.31618 -11.11135,41.6192 10.43838,-4.51223 21.3239,-7.67537 32.51856,-9.45849 0.85002,-5.26284 2.67434,-10.38161 5.61923,-15.02678 l 21.41741,-33.78305 c 12.95753,-20.43875 41.71754,-25.6495 64.09881,-11.46047 7.43227,4.71183 17.36835,2.48601 22.08018,-4.94626 4.71183,-7.43227 2.48602,-17.36835 -4.94626,-22.08018 C 496.20745,78.129405 447.62882,87.707334 425.19408,123.09508 Z M 147.58398,501.22287 C 171.25021,463.8926 160.18296,414.48819 122.85269,390.82195 85.522407,367.15571 36.117997,378.22297 12.451762,415.55324 -11.214473,452.88351 -0.14722018,502.28793 37.183053,525.95416 74.513327,549.6204 123.91774,538.55314 147.58398,501.22287 Z M 39.478204,432.68717 c 14.189033,-22.38128 43.859283,-29.02781 66.240556,-14.83878 22.38127,14.18903 29.02781,43.85928 14.83877,66.24055 C 106.3685,506.47022 76.698247,513.11675 54.316979,498.92772 31.935707,484.73869 25.289172,455.06844 39.478204,432.68717 Z M 354.32778,272.22984 c -17.88353,28.20885 -12.19273,41.64406 -32.75344,74.07579 -20.56071,32.43173 -35.13974,33.01649 -53.02327,61.22534 -19.4363,30.65812 -24.65502,69.14571 -9.81004,103.0663 8.90081,20.32476 23.71081,38.23882 43.81173,50.98218 l 37.83702,23.9875 c 22.38127,14.18903 52.05152,7.54249 66.24055,-14.83878 L 560.83566,327.49019 c 14.18903,-22.38127 7.5425,-52.05152 -14.83877,-66.24055 l -37.83702,-23.9875 c -20.10092,-12.74336 -42.62119,-18.49552 -64.80079,-17.87478 -37.012,1.04487 -69.595,22.18436 -89.0313,52.84248 z m 174.53518,16.04624 c 7.43227,4.71183 9.65809,14.64791 4.94626,22.08018 L 379.60389,553.59425 c -4.71183,7.43227 -14.64791,9.65808 -22.08019,4.94625 l -37.83702,-23.98749 c -14.01996,-8.88823 -24.99401,-21.64716 -31.6387,-36.75272 -9.92481,-22.63158 -7.14139,-49.99401 7.47599,-73.05094 14.67092,-23.14139 30.0531,-24.99302 53.07681,-61.3098 23.02372,-36.31678 18.13607,-51.01885 32.75345,-74.07578 14.61738,-23.05694 38.17737,-37.24766 62.88019,-37.92639 16.4967,-0.43464 32.71801,4.04744 46.73798,12.93566 l 37.83702,23.9875 z M 218.22054,473.6603 c -13.21274,5.71343 -24.81635,15.05187 -32.90142,27.80497 l -21.4174,33.78305 c -22.43474,35.38775 -10.37279,83.40993 26.87303,107.02262 7.43227,4.71183 17.36835,2.48601 22.08018,-4.94626 4.71183,-7.43227 2.48601,-17.36835 -4.94626,-22.08018 -22.38127,-14.18904 -29.93804,-42.4235 -16.98051,-62.86225 l 21.4174,-33.78305 c 2.9449,-4.64517 6.7962,-8.47891 11.19344,-11.49292 -3.16314,-10.88552 -4.89272,-22.16464 -5.31846,-33.44598 z" />
</svg>
