<?xml version="1.0" encoding="UTF-8" standalone="no"?>
<svg
   xmlns:dc="http://purl.org/dc/elements/1.1/"
   xmlns:cc="http://creativecommons.org/ns#"
   xmlns:rdf="http://www.w3.org/1999/02/22-rdf-syntax-ns#"
   xmlns:svg="http://www.w3.org/2000/svg"
   xmlns="http://www.w3.org/2000/svg"
   height="573.88257"
   width="568.16681"
   id="svg827"
   version="1.1"
   viewBox="0 0 568.16681 573.88257">
  <metadata
     id="metadata833">
    <rdf:RDF>
      <cc:Work
         rdf:about="">
        <dc:format>image/svg+xml</dc:format>
        <dc:type
           rdf:resource="http://purl.org/dc/dcmitype/StillImage" />
        <dc:title></dc:title>
      </cc:Work>
    </rdf:RDF>
  </metadata>
  <defs
     id="defs831" />
  <path
     style="fill:#2c2c28;fill-opacity:1"
     id="path825"
     d="m 554.95419,316.42035 -77.17018,-81.17119 52.18148,-49.60941 c 9.61009,-9.1364 9.99376,-24.3202 0.85736,-33.93029 L 431.60405,47.346489 c -9.1364,-9.61009 -24.32021,-9.993759 -33.9303,-0.85736 L 345.49227,96.098532 268.32209,14.927336 C 250.05618,-4.2855956 219.67443,-5.05329 200.4615,13.212616 L 14.927336,189.60161 c -19.2129318,18.26591 -19.9806258,48.64766 -1.71472,67.86059 L 299.84472,558.95521 c 18.26591,19.21293 48.64766,19.98063 67.86059,1.71472 L 553.23947,384.28094 c 19.21294,-18.2659 19.98063,-48.64766 1.71472,-67.86059 z M 413.92443,75.193055 l 88.1945,92.767085 -46.38354,44.09725 -88.1945,-92.76708 z M 345.65669,537.47816 c -6.39223,6.07715 -16.54305,5.82066 -22.6202,-0.57157 L 36.404386,235.41358 c -6.077151,-6.39224 -5.820658,-16.54305 0.571574,-22.6202 l 104.36297,-99.21881 110.24311,115.95885 -28.98971,27.56078 c -9.60284,9.12951 -9.98687,24.32746 -0.85736,33.9303 l 55.12156,57.97942 c 9.12951,9.60285 24.32745,9.98687 33.93029,0.85736 l 28.98972,-27.56078 110.24311,115.95885 z m -95.21779,-262.70434 23.19177,-22.04863 44.09724,46.38354 -23.19177,22.04863 z M 473.21142,416.21073 164.5307,91.525945 222.51012,36.404386 c 6.39223,-6.077151 16.54305,-5.820658 22.6202,0.571574 l 286.6321,301.49302 c 6.07716,6.39223 5.82066,16.54304 -0.57157,22.62019 z" />
</svg>
