<?xml version="1.0" encoding="UTF-8" standalone="no"?>
<svg
   xmlns:dc="http://purl.org/dc/elements/1.1/"
   xmlns:cc="http://creativecommons.org/ns#"
   xmlns:rdf="http://www.w3.org/1999/02/22-rdf-syntax-ns#"
   xmlns:svg="http://www.w3.org/2000/svg"
   xmlns="http://www.w3.org/2000/svg"
   id="svg8"
   version="1.1"
   viewBox="0 0 508.13228 1.0583334"
   height="4"
   width="1920.5">
  <defs
     id="defs2" />
  <metadata
     id="metadata5">
    <rdf:RDF>
      <cc:Work
         rdf:about="">
        <dc:format>image/svg+xml</dc:format>
        <dc:type
           rdf:resource="http://purl.org/dc/dcmitype/StillImage" />
        <dc:title></dc:title>
      </cc:Work>
    </rdf:RDF>
  </metadata>
  <g
     transform="translate(-0.13229167,-295.94165)"
     id="layer1">
    <path
       id="path819"
       d="m 0.26458333,296.47081 c 0,0.52917 0,0.52917 0,0.52917"
       style="fill:none;stroke:#dddddd;stroke-width:0.26458333;stroke-linecap:butt;stroke-linejoin:miter;stroke-opacity:1;stroke-miterlimit:4;stroke-dasharray:none" />
    <path
       style="fill:none;stroke:#dddddd;stroke-width:0.26458333;stroke-linecap:butt;stroke-linejoin:miter;stroke-opacity:1;stroke-miterlimit:4;stroke-dasharray:none"
       d="m 42.465625,296.47081 c 0,0.52917 0,0.52917 0,0.52917"
       id="path821" />
    <path
       id="path823"
       d="m 42.465625,296.47081 c 0,0.52917 0,0.52917 0,0.52917"
       style="fill:none;stroke:#dddddd;stroke-width:0.26458333;stroke-linecap:butt;stroke-linejoin:miter;stroke-opacity:1;stroke-miterlimit:4;stroke-dasharray:none" />
    <path
       id="path825"
       d="m 84.798958,296.47081 c 0,0.52917 0,0.52917 0,0.52917"
       style="fill:none;stroke:#dddddd;stroke-width:0.26458333;stroke-linecap:butt;stroke-linejoin:miter;stroke-opacity:1;stroke-miterlimit:4;stroke-dasharray:none" />
    <path
       style="fill:none;stroke:#dddddd;stroke-width:0.26458333;stroke-linecap:butt;stroke-linejoin:miter;stroke-opacity:1;stroke-miterlimit:4;stroke-dasharray:none"
       d="m 84.798958,296.47081 c 0,0.52917 0,0.52917 0,0.52917"
       id="path827" />
    <path
       style="fill:none;stroke:#dddddd;stroke-width:0.26458332px;stroke-linecap:butt;stroke-linejoin:miter;stroke-opacity:1"
       d="m 127.13229,296.47081 c 0,0.52917 0,0.52917 0,0.52917"
       id="path829" />
    <path
       id="path831"
       d="m 127.13229,296.47081 c 0,0.52917 0,0.52917 0,0.52917"
       style="fill:none;stroke:#dddddd;stroke-width:0.26458332px;stroke-linecap:butt;stroke-linejoin:miter;stroke-opacity:1" />
    <path
       id="path833"
       d="m 169.46562,296.47081 c 0,0.52917 0,0.52917 0,0.52917"
       style="fill:none;stroke:#dddddd;stroke-width:0.26458332px;stroke-linecap:butt;stroke-linejoin:miter;stroke-opacity:1" />
    <path
       style="fill:none;stroke:#dddddd;stroke-width:0.26458332px;stroke-linecap:butt;stroke-linejoin:miter;stroke-opacity:1"
       d="m 169.46562,296.47081 c 0,0.52917 0,0.52917 0,0.52917"
       id="path835" />
    <path
       style="fill:none;stroke:#dddddd;stroke-width:0.26458332px;stroke-linecap:butt;stroke-linejoin:miter;stroke-opacity:1"
       d="m 211.79896,296.47081 c 0,0.52917 0,0.52917 0,0.52917"
       id="path837" />
    <path
       id="path839"
       d="m 211.79896,296.47081 c 0,0.52917 0,0.52917 0,0.52917"
       style="fill:none;stroke:#dddddd;stroke-width:0.26458332px;stroke-linecap:butt;stroke-linejoin:miter;stroke-opacity:1" />
    <path
       id="path841"
       d="m 254.13229,296.47081 c 0,0.52917 0,0.52917 0,0.52917"
       style="fill:none;stroke:#dddddd;stroke-width:0.26458332px;stroke-linecap:butt;stroke-linejoin:miter;stroke-opacity:1" />
    <path
       style="fill:none;stroke:#dddddd;stroke-width:0.26458332px;stroke-linecap:butt;stroke-linejoin:miter;stroke-opacity:1"
       d="m 254.13229,296.47081 c 0,0.52917 0,0.52917 0,0.52917"
       id="path843" />
    <path
       style="fill:none;stroke:#dddddd;stroke-width:0.26458333;stroke-linecap:butt;stroke-linejoin:miter;stroke-opacity:1;stroke-miterlimit:4;stroke-dasharray:none"
       d="m 0.39687499,296.47081 c 0,0.52917 0,0.52917 0,0.52917"
       id="path845" />
    <path
       id="path847"
       d="m 0.39687499,296.47081 c 0,0.52917 0,0.52917 0,0.52917"
       style="fill:none;stroke:#dddddd;stroke-width:0.26458333;stroke-linecap:butt;stroke-linejoin:miter;stroke-opacity:1;stroke-miterlimit:4;stroke-dasharray:none" />
    <path
       style="fill:none;stroke:#dddddd;stroke-width:0.26458332px;stroke-linecap:butt;stroke-linejoin:miter;stroke-opacity:1"
       d="m 338.79896,296.47081 c 0,0.52917 0,0.52917 0,0.52917"
       id="path849" />
    <path
       id="path851"
       d="m 296.46562,296.47081 c 0,0.52917 0,0.52917 0,0.52917"
       style="fill:none;stroke:#dddddd;stroke-width:0.26458332px;stroke-linecap:butt;stroke-linejoin:miter;stroke-opacity:1" />
    <path
       id="path853"
       d="m 381.13229,296.47081 c 0,0.52917 0,0.52917 0,0.52917"
       style="fill:none;stroke:#dddddd;stroke-width:0.26458332px;stroke-linecap:butt;stroke-linejoin:miter;stroke-opacity:1" />
    <path
       style="fill:none;stroke:#dddddd;stroke-width:0.26458332px;stroke-linecap:butt;stroke-linejoin:miter;stroke-opacity:1"
       d="m 423.46562,296.47081 c 0,0.52917 0,0.52917 0,0.52917"
       id="path855" />
    <path
       id="path857"
       d="m 465.79896,296.47081 c 0,0.52917 0,0.52917 0,0.52917"
       style="fill:none;stroke:#dddddd;stroke-width:0.26458332px;stroke-linecap:butt;stroke-linejoin:miter;stroke-opacity:1" />
    <path
       style="fill:none;stroke:#dddddd;stroke-width:0.26458332px;stroke-linecap:butt;stroke-linejoin:miter;stroke-opacity:1"
       d="m 508.13229,296.47081 c 0,0.52917 0,0.52917 0,0.52917"
       id="path859" />
  </g>
</svg>
