<?xml version="1.0" encoding="UTF-8" standalone="no"?>
<svg
   xmlns:dc="http://purl.org/dc/elements/1.1/"
   xmlns:cc="http://creativecommons.org/ns#"
   xmlns:rdf="http://www.w3.org/1999/02/22-rdf-syntax-ns#"
   xmlns:svg="http://www.w3.org/2000/svg"
   xmlns="http://www.w3.org/2000/svg"
   xmlns:xlink="http://www.w3.org/1999/xlink"
   xml:space="preserve"
   id="svg2"
   height="32"
   width="140.81657"
   version="1.1"><metadata
   id="metadata8"><rdf:RDF><cc:Work
       rdf:about=""><dc:format>image/svg+xml</dc:format><dc:type
         rdf:resource="http://purl.org/dc/dcmitype/StillImage" /><dc:title></dc:title></cc:Work></rdf:RDF></metadata><defs
   id="defs6"><linearGradient
     id="linearGradient2078"><stop
       id="stop2074"
       offset="0"
       style="stop-color:#ababab;stop-opacity:1" /><stop
       id="stop2076"
       offset="1"
       style="stop-color:#ffffff;stop-opacity:1" /></linearGradient><clipPath
     id="clipPath18"><path
       id="path20"
       d="M 0,600 H 800 V 0 H 0 Z" /></clipPath><clipPath
     id="clipPath26"><path
       id="path28"
       d="M 282.752,47.7822 H 517.248 V 33.6641 H 282.752 Z" /></clipPath><clipPath
     id="clipPath132"><path
       id="path134"
       d="m 490.365,342.561 h 80 V 320 h -80 z" /></clipPath><clipPath
     id="clipPath148"><path
       id="path150"
       d="m 360.365,342.561 h 80 V 320 h -80 z" /></clipPath><clipPath
     id="clipPath164"><path
       id="path166"
       d="m 230.365,342.561 h 80 V 320 h -80 z" /></clipPath><clipPath
     id="clipPath180"><path
       id="path182"
       d="m 100.365,342.561 h 80 V 320 h -80 z" /></clipPath><clipPath
     id="clipPath196"><path
       id="path198"
       d="m 620.365,342.561 h 80 V 320 h -80 z" /></clipPath><clipPath
     id="clipPath212"><path
       id="path214"
       d="m 490.365,232.561 h 80 V 210 h -80 z" /></clipPath><clipPath
     id="clipPath228"><path
       id="path230"
       d="m 360.365,232.561 h 80 V 210 h -80 z" /></clipPath><clipPath
     id="clipPath244"><path
       id="path246"
       d="m 230.365,232.561 h 80 V 210 h -80 z" /></clipPath><clipPath
     id="clipPath260"><path
       id="path262"
       d="m 100.365,232.561 h 80 V 210 h -80 z" /></clipPath><clipPath
     id="clipPath276"><path
       id="path278"
       d="m 620.365,232.561 h 80 V 210 h -80 z" /></clipPath><clipPath
     id="clipPath292"><path
       id="path294"
       d="m 490.365,452.561 h 80 V 430 h -80 z" /></clipPath><clipPath
     id="clipPath308"><path
       id="path310"
       d="m 360.365,452.561 h 80 V 430 h -80 z" /></clipPath><clipPath
     id="clipPath324"><path
       id="path326"
       d="m 230.365,452.561 h 80 V 430 h -80 z" /></clipPath><clipPath
     id="clipPath340"><path
       id="path342"
       d="m 100.365,452.561 h 80 V 430 h -80 z" /></clipPath><clipPath
     id="clipPath356"><path
       id="path358"
       d="m 620.365,452.561 h 80 V 430 h -80 z" /></clipPath><clipPath
     id="clipPath372"><path
       id="path374"
       d="m 490.365,122.561 h 80 V 100 h -80 z" /></clipPath><clipPath
     id="clipPath388"><path
       id="path390"
       d="m 360.365,122.561 h 80 V 100 h -80 z" /></clipPath><clipPath
     id="clipPath404"><path
       id="path406"
       d="m 230.365,122.561 h 80 V 100 h -80 z" /></clipPath><clipPath
     id="clipPath420"><path
       id="path422"
       d="m 100.365,122.561 h 80 V 100 h -80 z" /></clipPath><clipPath
     id="clipPath436"><path
       id="path438"
       d="m 620.365,122.561 h 80 V 100 h -80 z" /></clipPath><clipPath
     id="clipPath512"><path
       id="path514"
       d="m 372.96,489.958 h 50.009 V 439.949 H 372.96 Z" /></clipPath><clipPath
     id="clipPath536"><path
       id="path538"
       d="m 240.295,486.032 h 60.14 v -48.943 h -60.14 z" /></clipPath><clipPath
     id="clipPath540"><path
       id="path542"
       d="M 254.33,486.032 H 286.4 V 468.577 H 254.33 Z" /></clipPath><clipPath
     id="clipPath544"><path
       id="path546"
       d="m 240.295,468.577 h 60.14 v -31.488 h -60.14 z" /></clipPath><clipPath
     id="clipPath596"><path
       id="path598"
       d="m 240.295,497.23 h 60.141 v -48.943 h -60.141 z" /></clipPath><clipPath
     id="clipPath600"><path
       id="path602"
       d="m 240.295,497.23 h 60.141 v -31.487 h -60.141 z" /></clipPath><clipPath
     id="clipPath604"><path
       id="path606"
       d="M 254.33,465.743 H 286.4 V 448.287 H 254.33 Z" /></clipPath><clipPath
     id="clipPath684"><path
       id="path686"
       d="m 102.597,354.847 h 69.884 v -27.758 h -69.884 z" /></clipPath><clipPath
     id="clipPath724"><path
       id="path726"
       d="m 244.829,372.032 h 27.562 v -44.944 h -27.562 z" /></clipPath><clipPath
     id="clipPath740"><path
       id="path742"
       d="m 249.933,367.403 h 17.378 v -22.625 h -17.378 z" /></clipPath><clipPath
     id="clipPath768"><path
       id="path770"
       d="m 274.486,387.646 h 21.416 v -47.474 h -21.416 z" /></clipPath><clipPath
     id="clipPath784"><path
       id="path786"
       d="m 275.278,381.136 h 16.779 v -21.441 h -16.779 z" /></clipPath><clipPath
     id="clipPath832"><path
       id="path834"
       d="m 502.919,477.471 h 8.196 V 462.16 h -8.196 z" /></clipPath><clipPath
     id="clipPath848"><path
       id="path850"
       d="m 505.033,492.143 h 12.164 V 482.4 h -12.164 z" /></clipPath><clipPath
     id="clipPath864"><path
       id="path866"
       d="m 507.017,488.484 h 50.496 v -51.089 h -50.496 z" /></clipPath><clipPath
     id="clipPath880"><path
       id="path882"
       d="m 518.066,496.422 h 21.355 v -4.279 h -21.355 z" /></clipPath><clipPath
     id="clipPath904"><path
       id="path906"
       d="m 517.338,507.424 h 5.862 v -3.966 h -5.862 z" /></clipPath><clipPath
     id="clipPath960"><path
       id="path962"
       d="m 525.077,347.096 h 19.034 v -7.447 h -19.034 z" /></clipPath><clipPath
     id="clipPath1000"><path
       id="path1002"
       d="m 514.955,369.522 h 29.156 v -31.323 h -29.156 z" /></clipPath><clipPath
     id="clipPath1028"><path
       id="path1030"
       d="m 544.437,335.938 h 19.034 v -7.446 h -19.034 z" /></clipPath><clipPath
     id="clipPath1088"><path
       id="path1090"
       d="m 109.963,251.575 h 18.125 v -18.22 h -18.125 z" /></clipPath><clipPath
     id="clipPath1104"><path
       id="path1106"
       d="m 147.108,251.574 h 18.126 v -18.218 h -18.126 z" /></clipPath><clipPath
     id="clipPath1156"><path
       id="path1158"
       d="m 366.792,354.271 h 67.131 v -27.182 h -67.131 z" /></clipPath><clipPath
     id="clipPath1172"><path
       id="path1174"
       d="m 366.792,378.452 h 67.131 v -27.181 h -67.131 z" /></clipPath><clipPath
     id="clipPath1192"><path
       id="path1194"
       d="M 675.988,470.762 H 687.21 V 456.03 h -11.222 z" /></clipPath><clipPath
     id="clipPath1212"><path
       id="path1214"
       d="m 665.481,467.24 h 22.416 v -26.281 h -22.416 z" /></clipPath><clipPath
     id="clipPath1228"><path
       id="path1230"
       d="m 678.573,480.74 h 10.442 v -39.777 h -10.442 z" /></clipPath><clipPath
     id="clipPath1244"><path
       id="path1246"
       d="m 665.481,480.74 h 15.106 v -15.847 h -15.106 z" /></clipPath><clipPath
     id="clipPath1264"><path
       id="path1266"
       d="m 647.34,495.902 h 14.731 V 484.678 H 647.34 Z" /></clipPath><clipPath
     id="clipPath1284"><path
       id="path1286"
       d="m 632.269,496.588 h 26.28 v -22.416 h -26.28 z" /></clipPath><clipPath
     id="clipPath1300"><path
       id="path1302"
       d="M 632.272,497.705 H 672.05 V 487.264 H 632.272 Z" /></clipPath><clipPath
     id="clipPath1316"><path
       id="path1318"
       d="M 656.202,489.277 H 672.05 V 474.172 H 656.202 Z" /></clipPath><clipPath
     id="clipPath1336"><path
       id="path1338"
       d="m 638.511,463.057 h 9.158 v -11.123 h -9.158 z" /></clipPath><clipPath
     id="clipPath1356"><path
       id="path1358"
       d="m 643.241,456.361 h 11.123 v -9.158 h -11.123 z" /></clipPath><clipPath
     id="clipPath1376"><path
       id="path1378"
       d="m 677.882,503.375 h 16.803 v -16.801 h -16.803 z" /></clipPath><clipPath
     id="clipPath1392"><path
       id="path1394"
       d="m 646.777,499.116 h 43.647 v -43.647 h -43.647 z" /></clipPath><clipPath
     id="clipPath1412"><path
       id="path1414"
       d="M 258.956,262.394 H 285.04 V 236.311 H 258.956 Z" /></clipPath><clipPath
     id="clipPath1428"><path
       id="path1430"
       d="m 242.849,252.914 h 32.709 v -32.711 h -32.709 z" /></clipPath><clipPath
     id="clipPath1444"><path
       id="path1446"
       d="m 239.9,262.046 h 28.541 V 217.294 H 239.9 Z" /></clipPath><clipPath
     id="clipPath1460"><path
       id="path1462"
       d="m 239.937,245.797 h 44.754 v -28.542 h -44.754 z" /></clipPath><clipPath
     id="clipPath1480"><path
       id="path1482"
       d="M 260.124,273.885 H 296.53 V 237.48 h -36.406 z" /></clipPath><clipPath
     id="clipPath1496"><path
       id="path1498"
       d="m 267.349,276.059 h 25.216 v -13.463 h -25.216 z" /></clipPath><clipPath
     id="clipPath1520"><path
       id="path1522"
       d="m 626.985,353.628 h 66.76 v -26.539 h -66.76 z" /></clipPath><clipPath
     id="clipPath1536"><path
       id="path1538"
       d="m 626.985,378.167 h 66.76 v -26.539 h -66.76 z" /></clipPath><clipPath
     id="clipPath1600"><path
       id="path1602"
       d="m 631.984,347.097 h 32.333 v -14.008 h -32.333 z" /></clipPath><clipPath
     id="clipPath1604"><path
       id="path1606"
       d="m 631.984,347.097 h 32.333 v -2.008 h -32.333 z" /></clipPath><clipPath
     id="clipPath1608"><path
       id="path1610"
       d="m 640.56,335.097 h 23.757 v -2.008 H 640.56 Z" /></clipPath><clipPath
     id="clipPath1612"><path
       id="path1614"
       d="m 635.021,343.097 h 29.296 v -2.008 h -29.296 z" /></clipPath><clipPath
     id="clipPath1616"><path
       id="path1618"
       d="m 637.854,339.097 h 26.463 v -2.008 h -26.463 z" /></clipPath><clipPath
     id="clipPath1724"><path
       id="path1726"
       d="m 516.251,281.048 h 23.978 v -45.721 h -23.978 z" /></clipPath><clipPath
     id="clipPath1740"><path
       id="path1742"
       d="m 515.858,279.413 h 30.701 v -47.271 h -30.701 z" /></clipPath><clipPath
     id="clipPath1764"><path
       id="path1766"
       d="m 367.93,160.341 h 53.291 V 107.052 H 367.93 Z" /></clipPath><clipPath
     id="clipPath1780"><path
       id="path1782"
       d="m 378.498,170.907 h 53.289 V 117.62 h -53.289 z" /></clipPath><clipPath
     id="clipPath1796"><path
       id="path1798"
       d="m 383.677,152.676 h 29.878 V 122.8 h -29.878 z" /></clipPath><clipPath
     id="clipPath1820"><path
       id="path1822"
       d="m 389.325,149.514 h 21.069 v -21.068 h -21.069 z" /></clipPath><clipPath
     id="clipPath1836"><path
       id="path1838"
       d="m 395.224,143.616 h 9.272 v -9.271 h -9.272 z" /></clipPath><clipPath
     id="clipPath1852"><path
       id="path1854"
       d="m 394.311,148.358 h 11.097 v -5.923 h -11.097 z" /></clipPath><clipPath
     id="clipPath1868"><path
       id="path1870"
       d="m 396.113,135.382 h 7.491 v -5.779 h -7.491 z" /></clipPath><clipPath
     id="clipPath1888"><path
       id="path1890"
       d="m 392.457,165.868 h 5.228 v -5.228 h -5.228 z" /></clipPath><clipPath
     id="clipPath1904"><path
       id="path1906"
       d="m 391.835,165.247 h 5.228 v -5.228 h -5.228 z" /></clipPath><clipPath
     id="clipPath1920"><path
       id="path1922"
       d="m 391.213,164.626 h 5.229 v -5.229 h -5.229 z" /></clipPath><clipPath
     id="clipPath1936"><path
       id="path1938"
       d="m 390.592,164.005 h 5.228 v -5.229 h -5.228 z" /></clipPath><clipPath
     id="clipPath1952"><path
       id="path1954"
       d="m 389.971,163.382 h 5.228 v -5.229 h -5.228 z" /></clipPath><clipPath
     id="clipPath1968"><path
       id="path1970"
       d="m 389.35,162.761 h 5.228 v -5.229 h -5.228 z" /></clipPath><clipPath
     id="clipPath1996"><path
       id="path1998"
       d="m 505.882,157.414 h 43.832 V 112.12 h -43.832 z" /></clipPath><clipPath
     id="clipPath2028"><path
       id="path2030"
       d="m 503.506,147.077 h 8.731 v -27.468 h -8.731 z" /></clipPath><clipPath
     id="clipPath2044"><path
       id="path2046"
       d="m 529.838,166.99 h 1.414 v -1.414 h -1.414 z" /></clipPath><clipPath
     id="clipPath2060"><path
       id="path2062"
       d="m 530.026,164.415 h 0.661 v -0.659 h -0.661 z" /></clipPath><clipPath
     id="clipPath2076"><path
       id="path2078"
       d="m 528.016,165.326 h 0.66 v -0.661 h -0.66 z" /></clipPath><clipPath
     id="clipPath2092"><path
       id="path2094"
       d="m 519.022,166.355 h 1.414 v -1.414 h -1.414 z" /></clipPath><clipPath
     id="clipPath2108"><path
       id="path2110"
       d="m 521.557,165.519 h 0.66 v -0.661 h -0.66 z" /></clipPath><clipPath
     id="clipPath2124"><path
       id="path2126"
       d="m 520.404,163.637 h 0.66 v -0.66 h -0.66 z" /></clipPath><clipPath
     id="clipPath2140"><path
       id="path2142"
       d="m 529.18,161.123 h 1.414 v -1.414 h -1.414 z" /></clipPath><clipPath
     id="clipPath2156"><path
       id="path2158"
       d="m 528.902,162.854 h 0.661 v -0.661 h -0.661 z" /></clipPath><clipPath
     id="clipPath2172"><path
       id="path2174"
       d="m 531.108,162.767 h 0.661 v -0.659 h -0.661 z" /></clipPath><clipPath
     id="clipPath2188"><path
       id="path2190"
       d="m 511.959,156.345 h 1.414 v -1.413 h -1.414 z" /></clipPath><clipPath
     id="clipPath2204"><path
       id="path2206"
       d="m 514.23,157.1 h 0.66 v -0.66 h -0.66 z" /></clipPath><clipPath
     id="clipPath2220"><path
       id="path2222"
       d="m 514.665,154.937 h 0.66 v -0.661 h -0.66 z" /></clipPath><clipPath
     id="clipPath2236"><path
       id="path2238"
       d="m 517.105,159.239 h 1.415 v -1.414 h -1.415 z" /></clipPath><clipPath
     id="clipPath2252"><path
       id="path2254"
       d="m 516.154,157.1 h 0.66 v -0.661 h -0.66 z" /></clipPath><clipPath
     id="clipPath2268"><path
       id="path2270"
       d="m 514.936,158.938 h 0.659 v -0.659 h -0.659 z" /></clipPath><clipPath
     id="clipPath2284"><path
       id="path2286"
       d="m 528.166,153.106 h 1.414 v -1.413 h -1.414 z" /></clipPath><clipPath
     id="clipPath2300"><path
       id="path2302"
       d="m 526.391,153.215 h 0.658 v -0.661 h -0.658 z" /></clipPath><clipPath
     id="clipPath2316"><path
       id="path2318"
       d="m 527.564,155.084 h 0.659 v -0.661 h -0.659 z" /></clipPath><clipPath
     id="clipPath2332"><path
       id="path2334"
       d="m 538.445,155.356 h 1.413 v -1.414 h -1.413 z" /></clipPath><clipPath
     id="clipPath2348"><path
       id="path2350"
       d="m 539.601,157.045 h 0.659 v -0.66 h -0.659 z" /></clipPath><clipPath
     id="clipPath2364"><path
       id="path2366"
       d="m 541.289,155.624 h 0.659 v -0.66 h -0.659 z" /></clipPath><clipPath
     id="clipPath2380"><path
       id="path2382"
       d="m 506.111,169.753 h 19.825 v -19.125 h -19.825 z" /></clipPath><clipPath
     id="clipPath2400"><path
       id="path2402"
       d="m 548.755,122.654 h 1.179 v -1.177 h -1.179 z" /></clipPath><clipPath
     id="clipPath2416"><path
       id="path2418"
       d="m 548.912,120.51 h 0.549 v -0.549 h -0.549 z" /></clipPath><clipPath
     id="clipPath2432"><path
       id="path2434"
       d="m 547.237,121.268 h 0.549 v -0.549 h -0.549 z" /></clipPath><clipPath
     id="clipPath2448"><path
       id="path2450"
       d="m 539.748,122.124 h 1.177 v -1.176 h -1.177 z" /></clipPath><clipPath
     id="clipPath2464"><path
       id="path2466"
       d="m 541.86,121.429 h 0.549 v -0.549 h -0.549 z" /></clipPath><clipPath
     id="clipPath2480"><path
       id="path2482"
       d="m 540.899,119.861 h 0.55 v -0.549 h -0.55 z" /></clipPath><clipPath
     id="clipPath2496"><path
       id="path2498"
       d="m 548.207,117.768 h 1.177 v -1.178 h -1.177 z" /></clipPath><clipPath
     id="clipPath2512"><path
       id="path2514"
       d="m 547.976,119.208 h 0.548 v -0.548 h -0.548 z" /></clipPath><clipPath
     id="clipPath2528"><path
       id="path2530"
       d="m 549.812,119.138 h 0.55 v -0.549 h -0.55 z" /></clipPath><clipPath
     id="clipPath2544"><path
       id="path2546"
       d="m 533.866,113.79 h 1.178 v -1.178 h -1.178 z" /></clipPath><clipPath
     id="clipPath2560"><path
       id="path2562"
       d="m 535.758,114.418 h 0.55 v -0.549 h -0.55 z" /></clipPath><clipPath
     id="clipPath2576"><path
       id="path2578"
       d="m 536.121,112.617 h 0.548 v -0.551 h -0.548 z" /></clipPath><clipPath
     id="clipPath2592"><path
       id="path2594"
       d="m 538.152,116.199 h 1.177 v -1.178 h -1.177 z" /></clipPath><clipPath
     id="clipPath2608"><path
       id="path2610"
       d="m 537.36,114.417 h 0.549 v -0.548 h -0.549 z" /></clipPath><clipPath
     id="clipPath2624"><path
       id="path2626"
       d="m 536.346,115.95 h 0.548 v -0.55 h -0.548 z" /></clipPath><clipPath
     id="clipPath2640"><path
       id="path2642"
       d="m 547.362,111.093 h 1.178 v -1.176 h -1.178 z" /></clipPath><clipPath
     id="clipPath2656"><path
       id="path2658"
       d="m 545.883,111.182 h 0.549 v -0.549 h -0.549 z" /></clipPath><clipPath
     id="clipPath2672"><path
       id="path2674"
       d="m 546.86,112.738 h 0.551 v -0.548 h -0.551 z" /></clipPath><clipPath
     id="clipPath2688"><path
       id="path2690"
       d="m 555.923,112.967 h 1.175 v -1.178 h -1.175 z" /></clipPath><clipPath
     id="clipPath2704"><path
       id="path2706"
       d="m 556.883,114.373 h 0.551 v -0.55 h -0.551 z" /></clipPath><clipPath
     id="clipPath2720"><path
       id="path2722"
       d="m 558.289,113.188 h 0.55 v -0.549 h -0.55 z" /></clipPath><clipPath
     id="clipPath2736"><path
       id="path2738"
       d="m 528.238,124.955 h 17.268 V 108.27 h -17.268 z" /></clipPath><clipPath
     id="clipPath2756"><path
       id="path2758"
       d="m 235.88,126.035 h 68.971 V 113.211 H 235.88 Z" /></clipPath><clipPath
     id="clipPath2780"><path
       id="path2782"
       d="m 251.762,134.281 h 36.717 v -5.537 h -36.717 z" /></clipPath><clipPath
     id="clipPath2796"><path
       id="path2798"
       d="m 269.921,177.375 h 18.534 v -48.541 h -18.534 z" /></clipPath><clipPath
     id="clipPath2820"><path
       id="path2822"
       d="M 650.62,170.966 H 692.3 V 129.288 H 650.62 Z" /></clipPath><clipPath
     id="clipPath2836"><path
       id="path2838"
       d="m 655.028,146.992 h 11.3 v -11.511 h -11.3 z" /></clipPath><clipPath
     id="clipPath2856"><path
       id="path2858"
       d="m 661.048,145.883 h 6.28 v -11.307 h -6.28 z" /></clipPath><linearGradient
     gradientTransform="translate(-49.087115,-43.00585)"
     gradientUnits="userSpaceOnUse"
     y2="99.48407"
     x2="265.49475"
     y1="419.67511"
     x1="263.82144"
     id="linearGradient2080"
     xlink:href="#linearGradient2078" /></defs><flowRoot
   transform="translate(-49.087115,-389.2796)"
   style="font-style:normal;font-weight:normal;font-size:21.33333397px;line-height:1.25;font-family:sans-serif;letter-spacing:0px;word-spacing:0px;fill:#000000;fill-opacity:1;stroke:none"
   id="flowRoot2094"
   xml:space="preserve"><flowRegion
     id="flowRegion2096"><rect
       y="175.7612"
       x="487.54626"
       height="227.72537"
       width="264.40598"
       id="rect2098" /></flowRegion><flowPara
     id="flowPara2100" /></flowRoot><g
   transform="scale(0.08459482)"
   id="g1175"><path
     d="m 209.74401,20.4 c -29.8125,0.29375 -44.5375,4.29375 -50.6625,13.80625 -2.525,4.33125 -6.0875,28.575 -6.05,68.75 -0.0375,40.1875 3.525,64.41875 6.07499,68.8 6.0875,9.45625 20.8,13.4625 50.7375,13.75625 29.93751,-0.29375 44.65,-4.3 50.7625,-13.79375 2.51876,-4.34375 6.08126,-28.575 6.04375,-68.75 0.0375,-40.1875 -3.525,-64.43125 -6.08125,-68.8125 C 254.4815,24.69375 239.744,20.69375 209.744,20.4 m 0.1,185.525 h -0.1 c -25.75625,-0.25625 -54.3625,-2.275 -67.8125,-23.15625 -8.45625,-13.125 -9.325,-60.18125 -9.3,-79.8125 -0.025,-19.61875 0.84375,-66.675 9.29375,-79.8125 C 155.3815,2.275 183.98775,0.25625 209.744,0 c 25.9625,0.25625 54.5625,2.275 68.0125,23.14375 8.4375,13.1375 9.31875,60.19375 9.30625,79.825 0.0125,19.61875 -0.86875,66.675 -9.30625,79.8 -13.45,20.88125 -42.05,22.9 -67.81875,23.15625 z"
     id="path1138"
     style="fill:#9d9d9d;fill-opacity:1;fill-rule:nonzero;stroke:none;stroke-width:6.25" /><path
     d="M 400.15838,85.06063 C 369.07713,58.19187 301.29588,57.67937 209.83963,57.16687 118.39588,57.67937 50.608385,58.19187 19.527135,85.06063 3.2708848,99.11062 -0.09786525,158.08563 0.00213475,217.71688 c -0.1,59.63124 3.26875005,118.6125 19.52500025,132.66249 31.08125,26.85626 98.868745,27.38126 190.312495,27.89376 91.45625,-0.5125 159.2375,-1.0375 190.31875,-27.89376 16.2625,-14.04999 19.61875,-73.03125 19.51875,-132.66249 0.1,-59.63125 -3.25625,-118.60625 -19.51875,-132.65625"
     id="path1142"
     style="fill:url(#linearGradient2080);fill-opacity:1;fill-rule:nonzero;stroke:none;stroke-width:6.25" /><path
     d="m 76.504005,372.12125 c 12.31251,1.9625 25.931245,3.28125 40.806245,4.1625 v -317.125 c -14.875,0.875 -28.493745,2.18125 -40.806245,4.1625 z"
     id="path1146"
     style="fill:#949494;fill-opacity:1;fill-rule:nonzero;stroke:none;stroke-width:6.25" /><path
     d="m 302.38026,376.28375 c 14.86875,-0.88125 28.49375,-2.2 40.79374,-4.1625 v -308.8 c -12.3,-1.98125 -25.925,-3.2875 -40.79374,-4.1625 z"
     id="path1150"
     style="fill:#949494;fill-opacity:1;fill-rule:nonzero;stroke:none;stroke-width:6.25" /><path
     d="m 400.04838,331.63 c -31.06875,26.86875 -98.8375,27.38125 -190.2625,27.89375 C 118.36713,359.01125 50.592135,358.49875 19.529635,331.63 4.1233848,318.32375 0.30463475,264.68625 0.02963475,208.38625 c -0.01875,3.1125 -0.03125,6.2375 -0.01875,9.375 C -0.09536525,277.38 3.2671348,336.33 19.529635,350.38 c 31.0625,26.86875 98.837495,27.38125 190.256245,27.89375 91.425,-0.5125 159.19375,-1.025 190.2625,-27.89375 16.2625,-14.05 19.63125,-73 19.51875,-132.61875 0.0125,-3.1375 0,-6.2625 -0.0125,-9.375 -0.28125,56.3 -4.1,109.9375 -19.50625,123.24375"
     id="path1166"
     style="opacity:0.19999701;fill:#4e4e4e;fill-opacity:1;fill-rule:nonzero;stroke:none;stroke-width:6.25" /><path
     d="M 19.52776,103.88375 C 50.59651,77.0275 118.36526,76.5025 209.78401,76.0025 c 91.42499,0.5 159.19999,1.025 190.26249,27.88125 15.40625,13.31875 19.22501,66.94375 19.50625,123.25625 0.0125,-3.125 0.025,-6.25 0.0125,-9.375 C 419.67774,158.14625 416.30899,99.18375 400.04649,85.13375 368.98399,58.2775 301.20899,57.7525 209.784,57.2525 c -91.41876,0.5 -159.1875,1.025 -190.25625,27.88125 -16.2625002,14.05 -19.62500025,73.0125 -19.51875025,132.63125 -0.0125,3.125 0,6.25 0.01875,9.375 0.275,-56.3125 4.09375005,-109.9375 19.50000025,-123.25625"
     id="path1182"
     style="opacity:0.19999701;fill:#4e4e4e;fill-opacity:1;fill-rule:nonzero;stroke:none;stroke-width:6.25" /><rect
     style="fill:#949494;fill-opacity:1;stroke:#000000;stroke-width:0;stroke-linejoin:miter;stroke-miterlimit:0;stroke-dasharray:none;stroke-dashoffset:0;stroke-opacity:0.57788942;paint-order:normal"
     id="rect2090"
     width="36.680595"
     height="117.68358"
     x="193.22522"
     y="76.118515" /><g
     aria-label="ЧЕМОДАН"
     style="font-style:normal;font-weight:normal;font-size:111.01434326px;line-height:1.25;font-family:sans-serif;letter-spacing:0px;word-spacing:0px;fill:#c1c1c1;fill-opacity:1;stroke:#c1c1c1;stroke-width:2.90647769;stroke-miterlimit:4;stroke-dasharray:none;stroke-opacity:1"
     id="text2104"><path
       d="m 552.97377,237.58034 q -7.67922,8.13093 -20.02619,13.09983 -12.34697,4.81833 -24.99509,4.81833 -22.73649,0 -33.12602,-12.64811 -10.23895,-12.64812 -10.23895,-39.14894 V 87.158089 h 63.54173 V 196.92568 q 0,14.30441 2.40917,19.72504 2.55973,5.27004 8.2815,5.27004 14.15385,0 14.15385,-24.39279 V 87.158089 H 616.5155 V 331.08606 h -63.54173 z"
       style="font-style:normal;font-variant:normal;font-weight:bold;font-stretch:normal;font-size:308.37313843px;font-family:Impact;-inkscape-font-specification:'Impact Bold';fill:#c1c1c1;fill-opacity:1;stroke:#c1c1c1;stroke-width:2.90647769;stroke-miterlimit:4;stroke-dasharray:none;stroke-opacity:1"
       id="path1144" /><path
       d="m 641.66116,87.308662 h 105.70212 v 48.785598 h -42.31096 v 46.22585 h 39.60065 v 46.37643 h -39.60065 v 53.60393 h 46.527 v 48.78559 H 641.66116 Z"
       style="font-style:normal;font-variant:normal;font-weight:bold;font-stretch:normal;font-size:308.37313843px;font-family:Impact;-inkscape-font-specification:'Impact Bold';fill:#c1c1c1;fill-opacity:1;stroke:#c1c1c1;stroke-width:2.90647769;stroke-miterlimit:4;stroke-dasharray:none;stroke-opacity:1"
       id="path1147" /><path
       d="M 965.5433,87.308662 V 331.08606 H 910.1325 V 166.50997 L 887.9983,331.08606 H 848.69879 L 825.36,170.27429 V 331.08606 H 769.9492 V 87.308662 h 82.06219 q 3.61375,21.983628 7.67922,51.797048 l 8.73322,62.036 14.45499,-113.833048 z"
       style="font-style:normal;font-variant:normal;font-weight:bold;font-stretch:normal;font-size:308.37313843px;font-family:Impact;-inkscape-font-specification:'Impact Bold';fill:#c1c1c1;fill-opacity:1;stroke:#c1c1c1;stroke-width:2.90647769;stroke-miterlimit:4;stroke-dasharray:none;stroke-opacity:1"
       id="path1149" /><path
       d="m 1135.8412,230.0517 q 0,36.73976 -1.8069,52.09819 -1.6563,15.20786 -10.8413,27.85597 -9.0343,12.64812 -24.5433,19.4239 -15.509,6.77578 -36.1375,6.77578 -19.5745,0 -35.2341,-6.32406 -15.509,-6.47463 -24.995,-19.27332 -9.48613,-12.79869 -11.293,-27.85598 -1.80688,-15.05728 -1.80688,-52.70048 v -41.70868 q 0,-36.73976 1.6563,-51.94762 1.80688,-15.35843 10.84128,-28.00654 9.1849,-12.64812 24.6939,-19.423897 15.509,-6.775777 36.1375,-6.775777 19.5745,0 35.0835,6.474631 15.6595,6.324058 25.1456,19.122753 9.4861,12.79869 11.293,27.85597 1.8069,15.05728 1.8069,52.70048 z M 1072.45,149.94696 q 0,-17.01473 -1.9575,-21.68249 -1.8068,-4.81833 -7.6792,-4.81833 -4.9689,0 -7.6792,3.91489 -2.5597,3.76432 -2.5597,22.58593 v 113.83305 q 0,21.23077 1.6563,26.19967 1.8069,4.9689 8.1309,4.9689 6.4746,0 8.2815,-5.72176 1.8069,-5.72177 1.8069,-27.25369 z"
       style="font-style:normal;font-variant:normal;font-weight:bold;font-stretch:normal;font-size:308.37313843px;font-family:Impact;-inkscape-font-specification:'Impact Bold';fill:#c1c1c1;fill-opacity:1;stroke:#c1c1c1;stroke-width:2.90647769;stroke-miterlimit:4;stroke-dasharray:none;stroke-opacity:1"
       id="path1151" /><path
       d="m 1340.9214,373.09588 h -43.8167 v -42.00982 h -102.3895 v 42.00982 h -43.6662 v -92.90343 h 12.9493 q 10.239,-29.964 16.7136,-78.74959 6.6252,-48.93617 6.6252,-106.906703 v -7.378068 h 140.635 V 279.8913 h 12.9493 z m -76.491,-93.20458 V 135.34139 h -18.8216 v 1.80688 q 0,70.01636 -15.0573,142.74303 z"
       style="font-style:normal;font-variant:normal;font-weight:bold;font-stretch:normal;font-size:308.37313843px;font-family:Impact;-inkscape-font-specification:'Impact Bold';fill:#c1c1c1;fill-opacity:1;stroke:#c1c1c1;stroke-width:2.90647769;stroke-miterlimit:4;stroke-dasharray:none;stroke-opacity:1"
       id="path1153" /><path
       d="m 1470.2634,87.308662 36.2881,243.777398 h -64.8969 l -3.162,-43.81669 h -22.7365 l -3.7644,43.81669 h -65.6497 l 32.2226,-243.777398 z m -33.5777,156.746308 q -4.8183,-41.40753 -9.6367,-102.23895 -9.6366,69.86579 -12.0458,102.23895 z"
       style="font-style:normal;font-variant:normal;font-weight:bold;font-stretch:normal;font-size:308.37313843px;font-family:Impact;-inkscape-font-specification:'Impact Bold';fill:#c1c1c1;fill-opacity:1;stroke:#c1c1c1;stroke-width:2.90647769;stroke-miterlimit:4;stroke-dasharray:none;stroke-opacity:1"
       id="path1155" /><path
       d="M 1663.1472,87.308662 V 331.08606 H 1599.756 V 228.69654 h -18.9722 v 102.38952 h -63.3911 V 87.308662 h 63.3911 v 87.181668 h 18.9722 V 87.308662 Z"
       style="font-style:normal;font-variant:normal;font-weight:bold;font-stretch:normal;font-size:308.37313843px;font-family:Impact;-inkscape-font-specification:'Impact Bold';fill:#c1c1c1;fill-opacity:1;stroke:#c1c1c1;stroke-width:2.90647769;stroke-miterlimit:4;stroke-dasharray:none;stroke-opacity:1"
       id="path1157" /></g></g>
</svg>